{"glyphs":{"0":{"ha":837,"x_min":75,"x_max":762,"o":"m 418 -25 q 163 128 251 -25 q 75 503 75 281 q 162 875 75 721 q 418 1029 248 1029 q 675 875 588 1029 q 762 503 762 721 q 674 128 762 281 q 418 -25 586 -25 m 418 75 q 565 175 511 75 q 619 503 619 275 q 565 829 619 730 q 418 928 511 928 q 271 829 325 928 q 218 503 218 730 q 271 175 218 275 q 418 75 325 75 z "},"1":{"ha":837,"x_min":125,"x_max":795,"o":"m 125 0 l 125 100 l 393 100 l 393 881 l 125 821 l 125 903 l 527 1029 l 527 100 l 795 100 l 795 0 l 125 0 z "},"2":{"ha":837,"x_min":114,"x_max":688,"o":"m 114 0 l 114 117 q 361 440 197 277 l 421 500 q 546 751 546 625 q 499 879 546 829 q 370 928 452 928 q 304 922 337 928 q 235 903 271 916 q 139 858 200 890 l 139 976 q 383 1029 264 1029 q 550 992 486 1029 q 652 895 615 956 q 688 756 688 833 q 653 613 688 682 q 519 451 618 545 l 462 397 q 376 307 414 353 q 312 216 338 260 q 273 117 286 172 l 683 117 l 683 0 l 114 0 z "},"3":{"ha":837,"x_min":159,"x_max":713,"o":"m 159 5 l 159 123 q 297 82 258 88 q 368 75 336 75 q 519 137 468 75 q 570 278 570 198 q 510 429 570 368 q 316 490 450 490 l 251 490 l 251 586 l 290 586 q 456 613 411 586 q 525 682 501 640 q 548 778 548 724 q 505 888 548 848 q 389 928 461 928 q 173 873 287 928 l 173 991 q 397 1029 283 1029 q 611 964 540 1029 q 682 800 682 898 q 663 704 682 749 q 605 618 643 658 q 501 548 568 579 q 670 431 628 505 q 713 278 713 357 q 671 123 713 196 q 557 13 630 51 q 366 -25 484 -25 q 159 5 267 -25 z "},"4":{"ha":837,"x_min":75,"x_max":753,"o":"m 494 0 l 494 268 l 75 268 l 75 380 l 494 1004 l 619 1004 l 619 368 l 753 368 l 753 268 l 619 268 l 619 0 l 494 0 m 188 368 l 494 368 l 494 824 l 188 368 z "},"5":{"ha":837,"x_min":183,"x_max":699,"o":"m 183 5 l 183 120 q 367 75 298 75 q 501 138 446 75 q 556 303 556 201 q 483 472 556 416 q 262 528 409 528 q 202 525 237 528 l 202 1004 l 673 1004 l 673 887 l 315 887 l 315 627 q 600 533 501 627 q 699 294 699 439 q 602 64 699 154 q 370 -25 506 -25 q 183 5 291 -25 z "},"6":{"ha":837,"x_min":110,"x_max":762,"o":"m 707 991 l 707 877 q 587 921 623 913 q 515 929 551 929 q 317 815 384 929 q 250 513 250 701 q 319 588 285 564 q 395 627 353 613 q 479 642 437 642 q 620 601 555 642 q 723 489 684 559 q 762 328 762 419 q 720 145 762 230 q 608 18 677 61 q 446 -25 538 -25 q 194 110 277 -25 q 110 482 110 244 q 162 784 110 665 q 304 966 215 903 q 503 1029 394 1029 q 707 991 585 1029 m 463 75 q 588 144 545 75 q 631 302 631 214 q 609 428 631 368 q 542 517 586 488 q 448 546 498 546 q 324 496 381 546 q 267 330 267 446 q 319 146 267 217 q 463 75 371 75 z "},"7":{"ha":837,"x_min":136,"x_max":741,"o":"m 191 0 q 213 119 199 71 q 259 237 228 168 q 405 509 290 307 l 614 878 l 136 878 l 136 1004 l 741 1004 l 741 891 l 709 837 q 516 483 591 638 q 402 217 441 328 q 350 0 363 106 l 191 0 z "},"8":{"ha":837,"x_min":109,"x_max":747,"o":"m 296 547 q 159 777 159 647 q 230 952 159 876 q 447 1029 300 1029 q 644 966 582 1029 q 707 812 707 904 q 660 669 707 736 q 531 553 613 602 q 707 405 667 470 q 747 264 747 340 q 705 117 747 185 q 590 12 663 49 q 420 -25 518 -25 q 256 9 326 -25 q 148 110 186 44 q 109 252 109 176 q 158 415 109 336 q 296 547 208 493 m 368 492 q 261 371 283 423 q 240 270 240 319 q 295 128 240 181 q 433 75 350 75 q 562 123 511 75 q 613 236 613 171 q 457 439 613 347 l 368 492 m 456 598 q 552 688 517 637 q 587 791 587 739 q 550 885 587 842 q 435 928 513 928 q 322 889 360 928 q 284 796 284 850 q 318 703 284 745 q 419 620 351 661 l 456 598 z "},"9":{"ha":837,"x_min":101,"x_max":752,"o":"m 156 10 l 156 125 q 282 82 246 90 q 349 75 317 75 q 544 187 475 75 q 612 491 612 298 q 543 415 577 440 q 468 376 509 391 q 382 362 426 362 q 243 403 308 362 q 139 515 178 444 q 101 675 101 585 q 143 858 101 774 q 255 986 185 943 q 416 1029 324 1029 q 669 894 585 1029 q 752 522 752 760 q 700 220 752 339 q 558 38 647 100 q 361 -25 469 -25 q 156 10 282 -25 m 400 928 q 274 860 318 928 q 231 703 231 791 q 253 576 231 635 q 320 487 276 516 q 414 458 365 458 q 538 509 481 458 q 595 675 595 559 q 544 858 595 787 q 400 928 492 928 z "}," ":{"ha":837,"x_min":0,"x_max":0,"o":""},"!":{"ha":837,"x_min":334,"x_max":502,"o":"m 368 284 l 351 803 l 351 1004 l 485 1004 l 485 803 l 468 284 l 368 284 m 334 0 l 334 151 l 502 151 l 502 0 l 334 0 z "},"\"":{"ha":837,"x_min":168,"x_max":669,"o":"m 201 703 l 168 1071 l 335 1071 l 301 703 l 201 703 m 536 703 l 502 1071 l 669 1071 l 636 703 l 536 703 z "},"#":{"ha":837,"x_min":35,"x_max":809,"o":"m 115 0 l 191 305 l 35 305 l 55 406 l 216 406 l 265 604 l 95 604 l 115 705 l 290 705 l 365 1004 l 468 1004 l 394 705 l 551 705 l 625 1004 l 729 1004 l 654 705 l 809 705 l 789 604 l 628 604 l 579 406 l 749 406 l 730 305 l 554 305 l 480 0 l 376 0 l 450 305 l 293 305 l 219 0 l 115 0 m 319 406 l 475 406 l 525 606 l 369 604 l 319 406 z "},"$":{"ha":837,"x_min":146,"x_max":718,"o":"m 395 -83 l 395 0 q 299 9 357 0 q 146 54 240 18 l 146 168 q 395 98 291 98 l 395 463 l 346 495 q 210 617 254 557 q 166 756 166 677 q 229 921 166 848 q 404 1004 292 994 l 404 1088 l 487 1088 l 487 1004 q 597 989 555 1000 q 692 960 638 979 l 692 850 q 487 910 594 899 l 487 551 l 532 524 q 669 412 620 473 q 718 266 718 351 q 661 97 718 178 q 479 0 603 17 l 479 -83 l 395 -83 m 479 100 q 546 132 524 111 q 583 185 569 153 q 596 251 596 218 q 571 329 596 292 q 509 391 546 366 l 479 413 l 479 100 m 404 604 l 404 903 q 321 855 353 897 q 290 760 290 814 q 310 688 290 718 q 375 625 330 658 l 404 604 z "},"%":{"ha":837,"x_min":0,"x_max":837,"o":"m 0 -25 l 734 1029 l 837 1029 l 102 -25 l 0 -25 m 205 544 q 103 570 151 544 q 28 653 56 596 q 1 774 1 711 q 28 892 1 836 q 102 977 55 949 q 205 1004 149 1004 q 310 976 262 1004 q 384 892 357 948 q 411 774 411 836 q 383 653 411 710 q 307 570 355 595 q 205 544 260 544 m 205 611 q 279 652 247 611 q 311 774 311 694 q 280 895 311 852 q 205 937 249 937 q 132 895 163 937 q 101 774 101 852 q 133 652 101 694 q 205 611 165 611 m 631 0 q 530 26 577 0 q 454 110 482 53 q 427 230 427 167 q 454 349 427 292 q 528 433 481 406 q 631 460 575 460 q 736 432 688 460 q 810 348 784 404 q 837 230 837 292 q 809 109 837 166 q 733 26 781 52 q 631 0 686 0 m 631 67 q 705 109 673 67 q 736 230 736 150 q 706 351 736 308 q 631 393 675 393 q 558 351 589 393 q 527 230 527 308 q 559 109 527 150 q 631 67 591 67 z "},"&":{"ha":837,"x_min":16,"x_max":837,"o":"m 652 0 l 602 60 q 343 -25 492 -25 q 171 17 241 -25 q 58 132 100 59 q 16 292 16 205 q 63 457 16 380 q 254 596 110 534 q 201 735 209 696 q 194 809 194 775 q 258 969 194 910 q 415 1029 323 1029 q 562 979 498 1029 q 627 835 627 928 q 580 694 627 758 q 414 563 533 631 q 641 231 492 411 q 679 305 667 270 q 697 387 690 340 q 704 483 704 434 l 703 534 l 837 534 q 800 320 830 415 q 703 151 769 224 q 837 0 766 75 l 652 0 m 543 138 q 392 340 444 259 q 294 513 340 420 q 190 429 224 477 q 155 319 155 381 q 184 198 155 256 q 258 108 212 140 q 367 75 304 75 q 543 138 452 75 m 374 652 q 470 729 437 682 q 503 825 503 777 q 478 901 503 873 q 417 928 452 928 q 353 897 378 928 q 327 823 327 865 q 374 652 327 760 z "},"'":{"ha":837,"x_min":318,"x_max":519,"o":"m 368 652 l 318 1071 l 519 1071 l 469 652 l 368 652 z "},"(":{"ha":837,"x_min":234,"x_max":736,"o":"m 736 -201 q 471 -94 581 -184 q 297 134 361 -4 q 234 435 234 271 q 297 736 234 599 q 471 964 361 874 q 736 1071 581 1054 l 736 979 q 533 883 610 954 q 411 694 455 813 q 368 435 368 574 q 411 176 368 296 q 532 -13 455 57 q 736 -109 610 -83 l 736 -201 z "},")":{"ha":837,"x_min":100,"x_max":602,"o":"m 100 1071 q 366 964 255 1054 q 539 736 476 874 q 602 435 602 599 q 539 133 602 271 q 365 -94 475 -4 q 100 -201 255 -184 l 100 -109 q 304 -13 227 -83 q 425 177 381 57 q 469 435 469 296 q 425 693 469 574 q 304 883 381 813 q 100 979 227 953 l 100 1071 z "},"*":{"ha":837,"x_min":111,"x_max":726,"o":"m 477 766 l 684 860 l 726 732 l 503 686 l 503 696 q 477 766 503 732 m 496 667 l 650 498 l 541 420 l 429 617 q 496 667 471 629 m 408 617 l 296 420 l 187 498 l 340 667 q 408 617 366 629 m 334 686 l 111 732 l 153 860 l 359 766 q 334 695 334 732 l 334 686 m 376 778 l 351 1004 l 486 1004 l 460 778 q 418 787 437 787 q 376 778 400 787 z "},"+":{"ha":837,"x_min":58,"x_max":778,"o":"m 368 0 l 368 309 l 58 309 l 58 410 l 368 410 l 368 720 l 469 720 l 469 410 l 778 410 l 778 309 l 469 309 l 469 0 l 368 0 z "},",":{"ha":837,"x_min":318,"x_max":519,"o":"m 318 -218 l 318 -151 q 360 -134 347 -146 q 384 -101 374 -122 q 399 -31 393 -79 l 401 0 l 318 0 l 318 201 l 519 201 l 519 79 q 495 -89 519 -32 q 428 -179 471 -145 q 318 -218 385 -214 z "},"-":{"ha":837,"x_min":142,"x_max":694,"o":"m 142 368 l 142 469 l 694 469 l 694 368 l 142 368 z "},".":{"ha":837,"x_min":318,"x_max":519,"o":"m 318 0 l 318 201 l 519 201 l 519 0 l 318 0 z "},"/":{"ha":837,"x_min":51,"x_max":787,"o":"m 787 1071 l 163 -201 l 51 -201 l 675 1071 l 787 1071 z "},":":{"ha":837,"x_min":318,"x_max":519,"o":"m 318 536 l 318 736 l 519 736 l 519 536 l 318 536 m 318 0 l 318 201 l 519 201 l 519 0 l 318 0 z "},";":{"ha":837,"x_min":318,"x_max":519,"o":"m 318 -218 l 318 -151 q 353 -141 343 -148 q 372 -121 363 -134 q 391 -81 383 -104 q 401 0 398 -59 l 318 0 l 318 201 l 519 201 l 519 79 q 495 -89 519 -32 q 428 -179 471 -145 q 318 -218 385 -214 m 318 536 l 318 736 l 519 736 l 519 536 l 318 536 z "},"<":{"ha":837,"x_min":58,"x_max":778,"o":"m 778 0 l 58 359 l 778 720 l 778 607 l 283 359 l 778 113 l 778 0 z "},"=":{"ha":837,"x_min":58,"x_max":778,"o":"m 58 193 l 58 293 l 778 293 l 778 193 l 58 193 m 58 427 l 58 527 l 778 527 l 778 427 l 58 427 z "},">":{"ha":837,"x_min":58,"x_max":778,"o":"m 58 720 l 778 359 l 58 0 l 58 113 l 553 359 l 58 607 l 58 720 z "},"?":{"ha":837,"x_min":111,"x_max":736,"o":"m 284 0 l 284 151 l 451 151 l 451 0 l 284 0 m 300 284 l 300 303 q 315 405 300 357 q 357 494 329 452 q 451 591 385 535 l 498 630 q 596 789 596 711 q 536 892 596 856 q 368 929 475 929 q 212 909 292 929 l 212 793 l 111 793 l 111 989 q 391 1029 249 1029 q 653 967 570 1029 q 736 808 736 905 q 606 587 736 692 l 539 532 q 451 427 468 475 q 435 332 435 379 l 435 284 l 300 284 z "},"@":{"ha":837,"x_min":50,"x_max":837,"o":"m 653 22 q 437 -25 529 -25 q 242 33 331 -25 q 102 207 154 92 q 50 470 50 323 q 107 759 50 626 q 260 961 164 892 q 484 1029 357 1029 q 686 955 619 1029 q 753 729 753 880 l 753 284 l 837 284 l 837 201 l 653 201 l 653 426 q 557 241 607 289 q 458 193 507 193 q 354 259 399 193 q 310 445 310 326 q 345 633 310 548 q 439 764 380 718 q 566 811 498 811 q 607 806 585 811 q 653 789 629 800 q 589 915 637 884 q 477 945 540 945 q 316 888 391 945 q 196 711 241 830 q 151 469 151 591 q 191 252 151 351 q 302 106 232 153 q 450 58 372 58 q 653 115 538 58 l 653 22 m 653 594 l 653 711 q 612 732 632 726 q 574 739 592 739 q 455 665 500 739 q 410 460 410 591 q 428 335 410 380 q 472 292 445 290 q 574 401 522 295 q 653 594 626 508 z "},"A":{"ha":837,"x_min":8,"x_max":828,"o":"m 8 0 l 351 1004 l 485 1004 l 828 0 l 686 0 l 589 284 l 220 284 l 123 0 l 8 0 m 254 385 l 555 385 l 405 825 l 254 385 z "},"B":{"ha":837,"x_min":125,"x_max":754,"o":"m 125 0 l 125 1004 l 406 1004 q 539 994 486 1004 q 664 919 617 980 q 711 779 711 857 q 669 642 711 707 q 620 584 648 610 q 512 522 592 557 q 694 416 635 488 q 754 252 754 344 q 724 133 754 189 q 642 44 694 77 q 534 6 592 13 q 388 0 475 0 l 125 0 m 259 561 l 306 561 q 412 569 363 561 q 500 605 462 577 q 556 668 536 629 q 576 749 576 706 q 558 821 576 789 q 513 869 541 852 q 426 899 475 894 q 321 903 376 903 l 259 903 l 259 561 m 259 100 l 380 100 q 478 105 433 100 q 550 130 523 111 q 595 186 578 151 q 612 262 612 222 q 536 412 612 347 q 308 477 460 477 l 259 477 l 259 100 z "},"C":{"ha":837,"x_min":69,"x_max":783,"o":"m 783 23 q 530 -25 650 -25 q 344 9 427 -25 q 206 102 261 43 q 103 279 136 176 q 69 494 69 381 q 102 713 69 606 q 194 888 135 821 q 342 993 254 958 q 527 1029 430 1029 q 772 990 640 1029 l 772 867 q 524 928 637 928 q 392 896 453 928 q 295 809 332 864 q 232 663 252 745 q 212 496 212 581 q 303 201 212 311 q 418 115 351 145 q 565 84 486 84 q 783 133 656 84 l 783 23 z "},"D":{"ha":837,"x_min":88,"x_max":785,"o":"m 88 0 l 88 1004 l 351 1004 q 685 876 585 1004 q 785 522 785 748 q 758 303 785 402 q 663 128 731 203 q 513 28 597 56 q 315 0 429 0 l 88 0 m 222 100 l 289 100 q 499 143 429 100 q 606 277 570 186 q 642 509 642 368 q 608 734 642 646 q 509 863 574 822 q 284 904 444 904 l 222 903 l 222 100 z "},"E":{"ha":837,"x_min":146,"x_max":766,"o":"m 146 0 l 146 1004 l 734 1004 l 734 903 l 280 903 l 280 581 l 665 581 l 665 481 l 280 481 l 280 100 l 766 100 l 766 0 l 146 0 z "},"F":{"ha":837,"x_min":168,"x_max":787,"o":"m 168 0 l 168 1004 l 787 1004 l 787 903 l 301 903 l 301 541 l 715 541 l 715 441 l 301 441 l 301 0 l 168 0 z "},"G":{"ha":837,"x_min":52,"x_max":766,"o":"m 766 22 q 612 -19 661 -13 q 519 -25 564 -25 q 273 35 375 -25 q 112 217 171 94 q 52 500 52 340 q 106 775 52 652 q 267 963 161 898 q 515 1029 372 1029 q 755 991 621 1029 l 755 868 q 509 928 631 928 q 347 879 418 928 q 235 724 275 830 q 195 492 195 618 q 238 274 195 364 q 365 134 282 184 q 545 83 447 83 q 632 93 578 83 l 632 432 l 766 432 l 766 22 z "},"H":{"ha":837,"x_min":100,"x_max":736,"o":"m 100 0 l 100 1004 l 234 1004 l 234 577 l 602 577 l 602 1004 l 736 1004 l 736 0 l 602 0 l 602 477 l 234 477 l 234 0 l 100 0 z "},"I":{"ha":837,"x_min":117,"x_max":720,"o":"m 117 0 l 117 100 l 351 100 l 351 903 l 117 903 l 117 1004 l 720 1004 l 720 903 l 486 903 l 486 100 l 720 100 l 720 0 l 117 0 z "},"J":{"ha":837,"x_min":134,"x_max":631,"o":"m 134 7 l 134 121 l 178 106 q 325 75 271 75 q 414 92 375 75 q 476 152 454 109 q 498 300 498 194 l 498 903 l 197 903 l 197 1004 l 631 1004 l 631 371 q 591 110 631 180 q 484 7 551 39 q 335 -25 416 -25 q 134 7 258 -25 z "},"K":{"ha":837,"x_min":115,"x_max":815,"o":"m 115 0 l 115 1004 l 249 1004 l 249 511 l 613 1004 l 748 1004 l 397 527 l 815 0 l 655 0 l 249 511 l 249 0 l 115 0 z "},"L":{"ha":837,"x_min":151,"x_max":753,"o":"m 151 0 l 151 1004 l 284 1004 l 284 100 l 753 100 l 753 0 l 151 0 z "},"M":{"ha":837,"x_min":64,"x_max":772,"o":"m 64 0 l 64 1004 l 224 1004 l 416 433 l 417 433 l 605 1004 l 772 1004 l 772 0 l 663 0 l 663 881 l 662 881 l 466 268 l 353 268 l 158 865 l 157 865 l 157 0 l 64 0 z "},"N":{"ha":837,"x_min":100,"x_max":736,"o":"m 100 0 l 100 1004 l 227 1004 l 626 240 l 627 240 l 627 1004 l 736 1004 l 736 0 l 613 0 l 211 768 l 209 768 l 209 0 l 100 0 z "},"O":{"ha":837,"x_min":42,"x_max":795,"o":"m 418 -25 q 139 123 237 -25 q 42 502 42 272 q 140 881 42 732 q 418 1029 237 1029 q 697 881 600 1029 q 795 502 795 732 q 697 123 795 272 q 418 -25 600 -25 m 418 75 q 593 181 532 75 q 653 503 653 287 q 593 823 653 718 q 418 928 532 928 q 245 823 305 928 q 184 503 184 718 q 244 181 184 287 q 418 75 304 75 z "},"P":{"ha":837,"x_min":155,"x_max":785,"o":"m 155 0 l 155 1004 l 437 1004 q 588 992 526 1004 q 733 909 682 975 q 785 736 785 843 q 679 490 785 578 q 386 401 573 401 l 288 401 l 288 0 l 155 0 m 288 502 l 372 502 q 589 573 535 502 q 642 735 642 644 q 579 870 642 827 q 519 896 551 889 q 421 903 487 903 l 288 903 l 288 502 z "},"Q":{"ha":837,"x_min":42,"x_max":854,"o":"m 766 -218 q 602 -136 669 -180 q 465 -24 535 -93 l 420 -25 q 140 123 237 -25 q 42 502 42 272 q 140 881 42 733 q 418 1029 237 1029 q 697 881 600 1029 q 795 501 795 733 q 750 223 795 351 q 583 9 705 94 q 854 -106 705 -72 l 766 -218 m 184 502 q 245 181 184 286 q 418 75 305 75 q 593 181 532 75 q 653 503 653 287 q 593 823 653 718 q 418 928 532 928 q 245 823 305 928 q 184 502 184 718 z "},"R":{"ha":837,"x_min":125,"x_max":816,"o":"m 125 0 l 125 1004 l 368 1004 q 572 977 509 1004 q 670 890 634 951 q 705 760 705 829 q 664 608 705 687 q 503 469 623 530 l 816 0 l 654 0 l 379 429 l 258 429 l 258 0 l 125 0 m 258 530 l 329 530 q 504 595 445 530 q 563 749 563 661 q 544 830 563 795 q 482 884 524 865 q 340 903 440 903 l 258 903 l 258 530 z "},"S":{"ha":837,"x_min":111,"x_max":758,"o":"m 111 23 l 111 155 q 414 75 288 75 q 521 97 471 75 q 597 160 571 118 q 623 250 623 202 q 504 408 623 346 l 309 510 q 160 627 202 566 q 118 768 118 687 q 191 950 118 872 q 423 1029 264 1029 q 685 988 538 1029 l 685 872 q 423 928 538 928 q 327 912 370 928 q 264 862 285 897 q 243 789 243 828 q 272 705 243 744 q 377 627 300 667 l 559 533 q 716 412 675 473 q 758 271 758 351 q 665 60 758 145 q 399 -25 573 -25 q 298 -19 354 -25 q 111 23 243 -12 z "},"T":{"ha":837,"x_min":17,"x_max":820,"o":"m 351 0 l 351 903 l 17 903 l 17 1004 l 820 1004 l 820 903 l 486 903 l 486 0 l 351 0 z "},"U":{"ha":837,"x_min":104,"x_max":733,"o":"m 104 1004 l 237 1004 l 237 338 q 261 171 237 218 q 326 99 286 123 q 422 75 366 75 q 561 125 505 75 q 616 341 616 175 l 616 1004 l 733 1004 l 733 361 q 722 197 733 252 q 626 41 703 108 q 424 -25 550 -25 q 188 61 273 -25 q 125 165 144 105 q 108 241 112 204 q 104 340 104 279 l 104 1004 z "},"V":{"ha":837,"x_min":9,"x_max":827,"o":"m 347 0 l 9 1004 l 151 1004 l 429 178 l 713 1004 l 827 1004 l 481 0 l 347 0 z "},"W":{"ha":837,"x_min":11,"x_max":825,"o":"m 140 0 l 11 1004 l 125 1004 l 231 147 l 233 147 l 358 736 l 487 736 l 610 155 l 612 155 l 724 1004 l 825 1004 l 682 0 l 537 0 l 417 561 l 416 561 l 295 0 l 140 0 z "},"X":{"ha":837,"x_min":7,"x_max":827,"o":"m 7 0 l 346 513 l 37 1004 l 195 1004 l 431 629 l 679 1004 l 809 1004 l 494 528 l 827 0 l 668 0 l 410 411 l 138 0 l 7 0 z "},"Y":{"ha":837,"x_min":22,"x_max":832,"o":"m 352 0 l 352 423 l 22 1004 l 176 1004 l 434 549 l 705 1004 l 832 1004 l 486 423 l 486 0 l 352 0 z "},"Z":{"ha":837,"x_min":67,"x_max":770,"o":"m 67 0 l 67 100 l 613 903 l 100 903 l 100 1004 l 764 1004 l 764 903 l 219 100 l 770 100 l 770 0 l 67 0 z "},"[":{"ha":837,"x_min":301,"x_max":720,"o":"m 301 -201 l 301 1071 l 720 1071 l 720 970 l 418 970 l 418 -100 l 720 -100 l 720 -201 l 301 -201 z "},"\\":{"ha":837,"x_min":50,"x_max":786,"o":"m 674 -201 l 50 1071 l 162 1071 l 786 -201 l 674 -201 z "},"]":{"ha":837,"x_min":117,"x_max":536,"o":"m 536 1071 l 536 -201 l 117 -201 l 117 -100 l 418 -100 l 418 970 l 117 970 l 117 1071 l 536 1071 z "},"^":{"ha":837,"x_min":58,"x_max":778,"o":"m 58 201 l 418 1004 l 778 201 l 665 201 l 418 753 l 171 201 l 58 201 z "},"_":{"ha":837,"x_min":0,"x_max":837,"o":"m 0 -100 l 0 0 l 837 0 l 837 -100 l 0 -100 z "},"`":{"ha":837,"x_min":284,"x_max":585,"o":"m 468 870 l 284 1071 l 435 1071 l 585 870 l 468 870 z "},"a":{"ha":837,"x_min":92,"x_max":802,"o":"m 566 89 q 440 9 498 32 q 324 -13 382 -13 q 159 44 227 -13 q 92 191 92 100 q 192 373 92 302 q 463 445 292 445 l 545 445 l 545 508 q 537 577 545 552 q 510 619 530 602 q 458 646 487 639 q 396 652 429 652 q 290 640 348 652 q 156 587 233 628 l 156 702 q 301 743 243 733 q 423 753 359 753 q 627 690 569 753 q 670 611 660 654 q 680 505 680 568 l 680 197 q 682 140 680 159 q 694 106 684 121 q 716 89 703 95 q 747 82 730 82 q 789 89 760 82 l 802 9 q 700 -13 735 -13 q 624 5 659 -13 q 566 89 589 23 m 545 176 l 545 361 l 505 361 q 297 321 363 361 q 231 212 231 281 q 263 130 231 165 q 359 94 295 94 q 450 115 404 94 q 545 176 496 135 z "},"b":{"ha":837,"x_min":117,"x_max":762,"o":"m 117 -8 l 117 1071 l 251 1071 l 251 736 l 243 598 l 251 598 q 360 714 300 675 q 492 753 420 753 q 690 654 618 753 q 762 393 762 556 q 679 100 762 210 q 577 13 636 43 q 452 -17 518 -17 q 351 3 400 -17 q 251 83 301 23 l 243 83 l 218 -8 l 117 -8 m 251 184 q 343 109 298 134 q 434 83 389 83 q 564 151 508 83 q 619 378 619 218 q 575 580 619 521 q 464 639 531 639 q 361 606 418 639 q 251 498 304 572 l 251 184 z "},"c":{"ha":837,"x_min":111,"x_max":748,"o":"m 748 24 q 511 -17 629 -17 q 210 88 310 -17 q 111 368 111 193 q 211 647 111 542 q 499 753 311 753 q 734 718 616 753 l 734 606 q 511 652 604 652 q 321 576 389 652 q 253 368 253 499 q 327 159 253 235 q 530 83 401 83 q 748 129 627 83 l 748 24 z "},"d":{"ha":837,"x_min":86,"x_max":730,"o":"m 597 0 l 605 138 l 597 138 q 488 22 548 61 q 355 -17 427 -17 q 158 81 230 -17 q 86 344 86 180 q 169 637 86 526 q 271 723 212 694 q 395 753 330 753 q 497 733 448 753 q 597 652 546 714 l 605 652 l 597 753 l 597 1071 l 730 1071 l 730 0 l 597 0 m 597 552 q 504 627 550 602 q 414 652 458 652 q 284 586 340 652 q 229 357 229 519 q 273 157 229 216 q 384 98 317 98 q 487 131 430 98 q 597 239 544 165 l 597 552 z "},"e":{"ha":837,"x_min":96,"x_max":745,"o":"m 745 29 q 692 12 709 18 q 590 -10 640 -3 q 490 -17 541 -17 q 189 90 282 -17 q 96 360 96 197 q 191 637 96 522 q 444 753 286 753 q 659 672 577 753 q 740 376 740 591 l 740 334 l 238 334 q 323 138 246 192 q 508 83 401 83 q 745 135 616 83 l 745 29 m 242 434 l 597 434 l 597 453 q 550 606 597 560 q 431 652 503 652 q 303 596 355 652 q 242 434 252 539 z "},"f":{"ha":837,"x_min":100,"x_max":814,"o":"m 301 0 l 301 619 l 100 619 l 100 720 l 301 720 l 301 798 q 316 928 301 880 q 410 1044 338 1000 q 609 1088 481 1088 q 814 1059 718 1088 l 814 953 q 619 987 715 987 q 477 947 524 987 q 445 901 454 928 q 435 812 435 873 l 435 720 l 787 720 l 787 619 l 435 619 l 435 0 l 301 0 z "},"g":{"ha":837,"x_min":83,"x_max":731,"o":"m 144 -246 l 158 -134 q 291 -177 244 -170 q 381 -184 338 -184 q 541 -134 492 -184 q 579 -71 568 -106 q 595 20 589 -36 l 610 153 l 602 153 q 555 86 575 105 q 512 50 535 66 q 439 12 476 24 q 358 0 402 0 q 243 25 295 0 q 161 91 192 50 q 103 211 122 141 q 83 355 83 280 q 164 635 83 516 q 393 753 245 753 q 494 735 448 753 q 606 652 540 716 l 614 652 l 614 736 l 731 736 l 731 147 q 719 -42 731 30 q 659 -175 706 -115 q 542 -261 610 -237 q 380 -285 475 -285 q 144 -246 275 -285 m 597 261 l 597 551 q 502 631 546 609 q 411 652 457 652 q 271 571 317 652 q 226 363 226 490 q 269 183 226 249 q 388 117 311 117 q 516 168 450 117 q 555 202 538 185 q 597 261 572 220 z "},"h":{"ha":837,"x_min":123,"x_max":718,"o":"m 123 0 l 123 1071 l 257 1071 l 257 736 l 249 598 l 257 598 q 368 713 302 673 q 508 753 434 753 q 671 682 613 753 q 708 607 699 648 q 718 504 718 566 l 718 0 l 584 0 l 584 467 q 580 535 584 509 q 562 582 576 561 q 522 615 547 605 q 467 626 496 626 q 363 590 413 626 q 257 481 313 555 l 257 0 l 123 0 z "},"i":{"ha":837,"x_min":117,"x_max":536,"o":"m 385 0 l 385 636 l 117 636 l 117 736 l 519 736 l 519 0 l 385 0 m 368 903 l 368 1071 l 536 1071 l 536 903 l 368 903 z "},"j":{"ha":837,"x_min":100,"x_max":606,"o":"m 100 -249 l 100 -137 q 147 -157 132 -151 q 224 -177 183 -170 q 307 -184 266 -184 q 427 -136 397 -184 q 451 -69 447 -106 q 456 18 456 -32 l 456 636 l 155 636 l 155 736 l 589 736 l 589 45 q 577 -95 589 -37 q 527 -198 565 -154 q 430 -264 486 -245 q 307 -284 374 -284 q 100 -249 211 -284 m 439 903 l 439 1071 l 606 1071 l 606 903 l 439 903 z "},"k":{"ha":837,"x_min":144,"x_max":806,"o":"m 144 0 l 144 1071 l 278 1071 l 278 385 l 587 736 l 732 736 l 441 405 l 806 0 l 625 0 l 278 385 l 278 0 l 144 0 z "},"l":{"ha":837,"x_min":117,"x_max":536,"o":"m 401 0 l 401 970 l 117 970 l 117 1071 l 536 1071 l 536 0 l 401 0 z "},"m":{"ha":837,"x_min":63,"x_max":774,"o":"m 63 0 l 63 736 l 180 736 l 172 598 l 180 598 q 261 714 223 675 q 345 753 300 753 q 428 712 392 753 q 469 598 463 672 l 477 598 q 549 706 505 659 q 643 753 592 753 q 712 731 681 753 q 759 671 744 710 q 774 539 774 633 l 774 0 l 657 0 l 657 534 q 653 603 657 587 q 637 628 649 619 q 615 637 626 637 q 545 588 584 637 q 477 475 506 538 l 477 0 l 360 0 l 360 509 q 355 598 360 581 q 339 626 351 616 q 316 636 328 636 q 248 588 287 636 q 180 474 208 541 l 180 0 l 63 0 z "},"n":{"ha":837,"x_min":123,"x_max":718,"o":"m 123 0 l 123 736 l 257 736 l 249 598 l 257 598 q 368 713 302 673 q 508 753 434 753 q 671 682 613 753 q 708 607 699 648 q 718 504 718 566 l 718 0 l 584 0 l 584 467 q 580 535 584 509 q 562 582 576 561 q 522 615 547 605 q 467 626 496 626 q 363 590 413 626 q 257 481 313 555 l 257 0 l 123 0 z "},"o":{"ha":837,"x_min":71,"x_max":766,"o":"m 418 -17 q 161 90 252 -17 q 71 368 71 197 q 161 646 71 540 q 418 753 252 753 q 675 646 585 753 q 766 368 766 540 q 675 90 766 197 q 418 -17 585 -17 m 418 83 q 569 159 515 83 q 623 368 623 235 q 569 577 623 501 q 418 652 515 652 q 268 577 322 652 q 214 368 214 501 q 268 159 214 235 q 418 83 321 83 z "},"p":{"ha":837,"x_min":121,"x_max":766,"o":"m 121 -268 l 121 736 l 255 736 l 247 598 l 255 598 q 364 714 304 675 q 496 753 424 753 q 694 654 622 753 q 766 393 766 556 q 683 100 766 210 q 581 13 640 43 q 456 -17 522 -17 q 355 3 404 -17 q 255 83 305 23 l 247 83 l 255 -17 l 255 -268 l 121 -268 m 255 184 q 348 109 302 134 q 438 83 393 83 q 568 151 512 83 q 623 378 623 218 q 579 580 623 521 q 468 639 535 639 q 365 606 422 639 q 255 498 308 572 l 255 184 z "},"q":{"ha":837,"x_min":75,"x_max":720,"o":"m 720 736 l 720 -268 l 586 -268 l 586 0 l 594 138 l 586 138 q 477 22 537 61 q 345 -17 416 -17 q 147 81 219 -17 q 75 344 75 180 q 158 637 75 526 q 260 723 201 694 q 385 753 319 753 q 486 733 437 753 q 586 652 535 714 l 594 652 l 619 736 l 720 736 m 586 552 q 493 627 539 602 q 403 652 448 652 q 274 586 330 652 q 218 357 218 519 q 262 157 218 216 q 373 98 306 98 q 476 131 419 98 q 586 239 533 165 l 586 552 z "},"r":{"ha":837,"x_min":209,"x_max":753,"o":"m 209 0 l 209 736 l 342 736 l 334 598 l 342 598 q 453 710 389 668 q 616 753 518 753 q 753 736 676 753 l 753 527 l 652 527 l 652 632 q 596 639 621 639 q 464 599 528 639 q 342 479 401 559 l 342 0 l 209 0 z "},"s":{"ha":837,"x_min":127,"x_max":715,"o":"m 127 30 l 127 151 q 395 83 282 83 q 535 120 487 83 q 583 199 583 157 q 560 255 583 231 q 456 304 536 279 l 313 351 q 191 424 237 376 q 146 543 146 471 q 217 694 146 635 q 435 753 289 753 q 527 749 479 753 q 676 721 575 745 l 676 612 q 435 652 544 652 q 316 625 358 652 q 274 555 274 597 q 294 507 274 527 q 374 465 314 486 l 543 406 q 680 324 644 371 q 715 212 715 277 q 635 50 715 117 q 398 -17 555 -17 q 127 30 271 -17 z "},"t":{"ha":837,"x_min":88,"x_max":747,"o":"m 747 1 q 553 -17 647 -17 q 331 42 392 -17 q 283 129 295 76 q 272 264 272 182 l 272 619 l 88 619 l 88 720 l 272 720 l 272 878 l 406 878 l 406 720 l 732 720 l 732 619 l 406 619 l 406 242 q 413 155 406 174 q 437 122 420 136 q 503 92 464 100 q 582 83 541 83 q 747 102 665 83 l 747 1 z "},"u":{"ha":837,"x_min":119,"x_max":713,"o":"m 713 736 l 713 0 l 580 0 l 588 138 l 580 138 q 468 23 534 62 q 328 -17 402 -17 q 166 54 224 -17 q 129 130 138 89 q 119 233 119 170 l 119 736 l 253 736 l 253 269 q 257 201 253 227 q 275 155 260 175 q 315 121 290 132 q 370 110 340 110 q 474 146 424 110 q 580 255 524 182 l 580 736 l 713 736 z "},"v":{"ha":837,"x_min":42,"x_max":795,"o":"m 347 0 l 42 736 l 179 736 l 424 146 l 676 736 l 795 736 l 481 0 l 347 0 z "},"w":{"ha":837,"x_min":8,"x_max":828,"o":"m 142 0 l 8 736 l 132 736 l 229 160 l 231 160 l 361 669 l 491 669 l 615 140 l 617 140 l 726 736 l 828 736 l 681 0 l 549 0 l 420 551 l 418 551 l 275 0 l 142 0 z "},"x":{"ha":837,"x_min":63,"x_max":783,"o":"m 63 0 l 337 372 l 64 736 l 232 736 l 435 465 l 622 736 l 754 736 l 504 373 l 783 0 l 616 0 l 405 281 l 198 0 l 63 0 z "},"y":{"ha":837,"x_min":58,"x_max":800,"o":"m 96 -268 l 96 -168 l 151 -168 q 268 -138 231 -168 q 303 -98 290 -120 q 334 -38 316 -76 l 367 33 l 58 736 l 196 736 l 437 185 l 680 736 l 800 736 l 429 -94 q 322 -231 388 -186 q 251 -261 290 -254 q 153 -268 212 -268 l 96 -268 z "},"z":{"ha":837,"x_min":92,"x_max":745,"o":"m 92 0 l 92 100 l 574 636 l 109 636 l 109 736 l 732 736 l 732 636 l 250 100 l 745 100 l 745 0 l 92 0 z "},"{":{"ha":837,"x_min":159,"x_max":694,"o":"m 694 1071 l 694 970 l 641 970 q 492 942 527 970 q 457 860 457 913 q 464 798 457 838 l 479 703 q 488 625 488 656 q 476 549 488 584 q 434 483 464 513 q 353 435 405 452 q 434 388 405 418 q 475 322 464 357 q 487 243 487 288 q 479 167 487 213 l 464 73 q 457 10 457 33 q 474 -51 457 -25 q 527 -88 490 -76 q 641 -100 564 -100 l 694 -100 l 694 -201 l 621 -201 q 454 -176 514 -201 q 365 -105 395 -151 q 335 -5 335 -59 q 345 86 335 35 l 368 207 q 372 260 372 233 q 358 326 372 301 q 312 368 343 351 q 220 385 281 385 l 159 385 l 159 486 l 220 486 q 312 502 281 486 q 357 544 342 519 q 372 610 372 568 q 368 663 372 636 l 345 784 q 335 876 335 835 q 365 975 335 929 q 455 1046 395 1021 q 621 1071 515 1071 l 694 1071 z "},"|":{"ha":837,"x_min":368,"x_max":469,"o":"m 368 -201 l 368 1071 l 469 1071 l 469 -201 l 368 -201 z "},"}":{"ha":837,"x_min":142,"x_max":678,"o":"m 142 -201 l 142 -100 l 195 -100 q 312 -88 276 -100 q 363 -50 347 -75 q 380 10 380 -25 q 373 73 380 33 l 357 167 q 349 245 349 214 q 361 321 349 286 q 402 388 372 357 q 483 435 431 418 q 402 483 431 452 q 361 548 372 513 q 349 625 349 583 q 357 703 349 656 l 373 798 q 380 860 380 838 q 345 942 380 913 q 195 970 310 970 l 142 970 l 142 1071 l 216 1071 q 383 1046 323 1071 q 472 975 442 1021 q 501 876 501 928 q 492 784 501 835 l 469 663 q 464 610 464 636 q 616 486 464 486 l 678 486 l 678 385 l 616 385 q 525 368 556 385 q 479 327 494 351 q 464 260 464 302 q 469 207 464 233 l 492 86 q 501 -5 501 36 q 437 -144 501 -87 q 216 -201 373 -201 l 142 -201 z "},"~":{"ha":837,"x_min":58,"x_max":778,"o":"m 58 259 q 105 414 58 346 q 243 483 152 483 q 310 473 279 483 q 385 439 340 464 l 485 383 q 602 340 561 340 q 643 351 622 340 q 674 384 664 363 q 686 460 684 404 l 778 460 q 731 305 778 373 q 593 237 684 237 q 527 246 558 237 q 451 281 496 256 l 351 336 q 234 380 275 380 q 193 368 214 380 q 162 336 172 357 q 151 259 153 315 l 58 259 z "},"Ä":{"ha":837,"x_min":8,"x_max":828,"o":"m 8 0 l 351 1004 l 485 1004 l 828 0 l 686 0 l 589 284 l 220 284 l 123 0 l 8 0 m 254 385 l 555 385 l 405 825 l 254 385 m 226 1088 l 226 1205 l 343 1205 l 343 1088 l 226 1088 m 494 1088 l 494 1205 l 611 1205 l 611 1088 l 494 1088 z "},"Å":{"ha":837,"x_min":8,"x_max":828,"o":"m 828 0 l 686 0 l 589 284 l 220 284 l 123 0 l 8 0 l 349 1004 q 319 1041 330 1020 q 309 1088 309 1062 q 341 1164 309 1133 q 418 1196 374 1196 q 495 1164 463 1196 q 527 1088 527 1132 q 522 1055 527 1072 q 508 1026 517 1038 q 485 1004 500 1013 l 828 0 m 254 385 l 555 385 l 405 825 l 254 385 m 418 1029 q 459 1046 442 1029 q 476 1088 476 1063 q 459 1129 476 1112 q 418 1146 442 1146 q 376 1129 393 1146 q 359 1088 359 1112 q 376 1046 359 1064 q 418 1029 393 1029 z "},"Ç":{"ha":837,"x_min":69,"x_max":783,"o":"m 512 -25 l 486 -73 q 572 -121 549 -94 q 595 -180 595 -148 q 560 -244 595 -220 q 470 -268 526 -268 q 370 -251 420 -268 l 370 -193 q 441 -208 415 -208 q 484 -196 468 -208 q 500 -168 500 -184 q 479 -134 500 -149 q 390 -107 457 -119 l 437 -14 q 224 83 299 11 q 109 261 149 155 q 69 494 69 367 q 123 771 69 644 q 283 964 176 899 q 527 1029 389 1029 q 772 990 640 1029 l 772 867 q 524 928 637 928 q 365 880 436 928 q 253 728 294 831 q 212 496 212 624 q 255 278 212 370 q 380 135 298 186 q 565 84 463 84 q 783 133 656 84 l 783 23 q 536 -25 651 -25 l 512 -25 z "},"É":{"ha":837,"x_min":146,"x_max":766,"o":"m 146 0 l 146 1004 l 734 1004 l 734 903 l 280 903 l 280 581 l 665 581 l 665 481 l 280 481 l 280 100 l 766 100 l 766 0 l 146 0 m 322 1088 l 473 1289 l 623 1289 l 439 1088 l 322 1088 z "},"Ñ":{"ha":837,"x_min":100,"x_max":736,"o":"m 100 0 l 100 1004 l 227 1004 l 626 240 l 627 240 l 627 1004 l 736 1004 l 736 0 l 613 0 l 211 768 l 209 768 l 209 0 l 100 0 m 644 1246 q 603 1120 635 1152 q 519 1088 572 1088 q 444 1101 477 1088 l 368 1133 q 327 1143 342 1143 q 276 1088 292 1143 l 193 1088 q 233 1214 202 1181 q 318 1246 264 1246 q 393 1233 360 1246 l 469 1202 q 510 1192 495 1192 q 561 1246 545 1192 l 644 1246 z "},"Ö":{"ha":837,"x_min":42,"x_max":795,"o":"m 418 -25 q 139 123 237 -25 q 42 502 42 272 q 140 881 42 732 q 418 1029 237 1029 q 697 881 600 1029 q 795 502 795 732 q 697 123 795 272 q 418 -25 600 -25 m 418 75 q 593 181 532 75 q 653 503 653 287 q 593 823 653 718 q 418 928 532 928 q 245 823 305 928 q 184 503 184 718 q 244 181 184 287 q 418 75 304 75 m 226 1088 l 226 1205 l 343 1205 l 343 1088 l 226 1088 m 494 1088 l 494 1205 l 611 1205 l 611 1088 l 494 1088 z "},"Ü":{"ha":837,"x_min":104,"x_max":733,"o":"m 104 1004 l 237 1004 l 237 338 q 261 171 237 218 q 326 99 286 123 q 422 75 366 75 q 561 125 505 75 q 616 341 616 175 l 616 1004 l 733 1004 l 733 361 q 722 197 733 252 q 626 41 703 108 q 424 -25 550 -25 q 188 61 273 -25 q 125 165 144 105 q 108 241 112 204 q 104 340 104 279 l 104 1004 m 226 1088 l 226 1205 l 343 1205 l 343 1088 l 226 1088 m 494 1088 l 494 1205 l 611 1205 l 611 1088 l 494 1088 z "},"á":{"ha":837,"x_min":92,"x_max":802,"o":"m 566 89 q 440 9 498 32 q 324 -13 382 -13 q 159 44 227 -13 q 92 191 92 100 q 192 373 92 302 q 463 445 292 445 l 545 445 l 545 508 q 537 577 545 552 q 510 619 530 602 q 458 646 487 639 q 396 652 429 652 q 290 640 348 652 q 156 587 233 628 l 156 702 q 301 743 243 733 q 423 753 359 753 q 627 690 569 753 q 670 611 660 654 q 680 505 680 568 l 680 197 q 682 140 680 159 q 694 106 684 121 q 716 89 703 95 q 747 82 730 82 q 789 89 760 82 l 802 9 q 700 -13 735 -13 q 624 5 659 -13 q 566 89 589 23 m 545 176 l 545 361 l 505 361 q 297 321 363 361 q 231 212 231 281 q 263 130 231 165 q 359 94 295 94 q 450 115 404 94 q 545 176 496 135 m 296 870 l 446 1071 l 597 1071 l 413 870 l 296 870 z "},"à":{"ha":837,"x_min":92,"x_max":802,"o":"m 566 89 q 440 9 498 32 q 324 -13 382 -13 q 159 44 227 -13 q 92 191 92 100 q 192 373 92 302 q 463 445 292 445 l 545 445 l 545 508 q 537 577 545 552 q 510 619 530 602 q 458 646 487 639 q 396 652 429 652 q 290 640 348 652 q 156 587 233 628 l 156 702 q 301 743 243 733 q 423 753 359 753 q 627 690 569 753 q 670 611 660 654 q 680 505 680 568 l 680 197 q 682 140 680 159 q 694 106 684 121 q 716 89 703 95 q 747 82 730 82 q 789 89 760 82 l 802 9 q 700 -13 735 -13 q 624 5 659 -13 q 566 89 589 23 m 545 176 l 545 361 l 505 361 q 297 321 363 361 q 231 212 231 281 q 263 130 231 165 q 359 94 295 94 q 450 115 404 94 q 545 176 496 135 m 479 870 l 296 1071 l 446 1071 l 597 870 l 479 870 z "},"â":{"ha":837,"x_min":92,"x_max":802,"o":"m 566 89 q 440 9 498 32 q 324 -13 382 -13 q 159 44 227 -13 q 92 191 92 100 q 192 373 92 302 q 463 445 292 445 l 545 445 l 545 508 q 537 577 545 552 q 510 619 530 602 q 458 646 487 639 q 396 652 429 652 q 290 640 348 652 q 156 587 233 628 l 156 702 q 301 743 243 733 q 423 753 359 753 q 627 690 569 753 q 670 611 660 654 q 680 505 680 568 l 680 197 q 682 140 680 159 q 694 106 684 121 q 716 89 703 95 q 747 82 730 82 q 789 89 760 82 l 802 9 q 700 -13 735 -13 q 624 5 659 -13 q 566 89 589 23 m 545 176 l 545 361 l 505 361 q 297 321 363 361 q 231 212 231 281 q 263 130 231 165 q 359 94 295 94 q 450 115 404 94 q 545 176 496 135 m 507 1071 l 658 870 l 541 870 l 432 996 l 323 870 l 206 870 l 357 1071 l 507 1071 z "},"ä":{"ha":837,"x_min":92,"x_max":802,"o":"m 566 89 q 440 9 498 32 q 324 -13 382 -13 q 159 44 227 -13 q 92 191 92 100 q 192 373 92 302 q 463 445 292 445 l 545 445 l 545 508 q 537 577 545 552 q 510 619 530 602 q 458 646 487 639 q 396 652 429 652 q 290 640 348 652 q 156 587 233 628 l 156 702 q 301 743 243 733 q 423 753 359 753 q 627 690 569 753 q 670 611 660 654 q 680 505 680 568 l 680 197 q 682 140 680 159 q 694 106 684 121 q 716 89 703 95 q 747 82 730 82 q 789 89 760 82 l 802 9 q 700 -13 735 -13 q 624 5 659 -13 q 566 89 589 23 m 545 176 l 545 361 l 505 361 q 297 321 363 361 q 231 212 231 281 q 263 130 231 165 q 359 94 295 94 q 450 115 404 94 q 545 176 496 135 m 254 870 l 254 987 l 372 987 l 372 870 l 254 870 m 522 870 l 522 987 l 640 987 l 640 870 l 522 870 z "},"ã":{"ha":837,"x_min":92,"x_max":802,"o":"m 566 89 q 440 9 498 32 q 324 -13 382 -13 q 159 44 227 -13 q 92 191 92 100 q 192 373 92 302 q 463 445 292 445 l 545 445 l 545 508 q 537 577 545 552 q 510 619 530 602 q 458 646 487 639 q 396 652 429 652 q 290 640 348 652 q 156 587 233 628 l 156 702 q 301 743 243 733 q 423 753 359 753 q 627 690 569 753 q 670 611 660 654 q 680 505 680 568 l 680 197 q 682 140 680 159 q 694 106 684 121 q 716 89 703 95 q 747 82 730 82 q 789 89 760 82 l 802 9 q 700 -13 735 -13 q 624 5 659 -13 q 566 89 589 23 m 545 176 l 545 361 l 505 361 q 297 321 363 361 q 231 212 231 281 q 263 130 231 165 q 359 94 295 94 q 450 115 404 94 q 545 176 496 135 m 648 1029 q 607 902 638 935 q 523 870 575 870 q 447 884 481 870 l 372 915 q 330 926 345 926 q 279 870 295 926 l 196 870 q 237 996 205 964 q 321 1029 268 1029 q 397 1015 363 1029 l 472 985 q 513 974 498 974 q 564 1029 549 974 l 648 1029 z "},"å":{"ha":837,"x_min":92,"x_max":802,"o":"m 566 89 q 440 9 498 32 q 324 -13 382 -13 q 159 44 227 -13 q 92 191 92 100 q 192 373 92 302 q 463 445 292 445 l 545 445 l 545 508 q 537 577 545 552 q 510 619 530 602 q 458 646 487 639 q 396 652 429 652 q 290 640 348 652 q 156 587 233 628 l 156 702 q 301 743 243 733 q 423 753 359 753 q 627 690 569 753 q 670 611 660 654 q 680 505 680 568 l 680 197 q 682 140 680 159 q 694 106 684 121 q 716 89 703 95 q 747 82 730 82 q 789 89 760 82 l 802 9 q 700 -13 735 -13 q 624 5 659 -13 q 566 89 589 23 m 545 176 l 545 361 l 505 361 q 297 321 363 361 q 231 212 231 281 q 263 130 231 165 q 359 94 295 94 q 450 115 404 94 q 545 176 496 135 m 447 870 q 373 899 404 870 q 342 975 342 928 q 373 1050 342 1021 q 447 1079 404 1079 q 520 1050 490 1079 q 551 975 551 1021 q 520 899 551 928 q 447 870 490 870 m 447 920 q 486 935 471 920 q 501 975 501 949 q 486 1015 501 1000 q 447 1029 471 1029 q 408 1015 423 1029 q 393 975 393 1000 q 408 935 393 949 q 447 920 423 920 z "},"ç":{"ha":837,"x_min":111,"x_max":748,"o":"m 481 -17 l 455 -73 q 546 -125 528 -98 q 564 -178 564 -152 q 530 -243 564 -219 q 440 -268 496 -268 q 340 -251 394 -268 l 340 -192 q 413 -208 386 -208 q 454 -196 437 -208 q 471 -168 471 -185 q 360 -108 471 -123 l 408 -12 q 229 71 291 16 q 139 201 167 125 q 111 368 111 278 q 211 647 111 542 q 499 753 311 753 q 734 718 616 753 l 734 606 q 511 652 604 652 q 321 576 389 652 q 253 368 253 499 q 327 159 253 235 q 530 83 401 83 q 748 129 627 83 l 748 24 q 501 -17 613 -17 l 481 -17 z "},"é":{"ha":837,"x_min":96,"x_max":745,"o":"m 745 29 q 692 12 709 18 q 590 -10 640 -3 q 490 -17 541 -17 q 189 90 282 -17 q 96 360 96 197 q 191 637 96 522 q 444 753 286 753 q 659 672 577 753 q 740 376 740 591 l 740 334 l 238 334 q 323 138 246 192 q 508 83 401 83 q 745 135 616 83 l 745 29 m 242 434 l 597 434 l 597 453 q 550 606 597 560 q 431 652 503 652 q 303 596 355 652 q 242 434 252 539 m 320 870 l 471 1071 l 621 1071 l 437 870 l 320 870 z "},"è":{"ha":837,"x_min":96,"x_max":745,"o":"m 745 29 q 692 12 709 18 q 590 -10 640 -3 q 490 -17 541 -17 q 189 90 282 -17 q 96 360 96 197 q 191 637 96 522 q 444 753 286 753 q 659 672 577 753 q 740 376 740 591 l 740 334 l 238 334 q 323 138 246 192 q 508 83 401 83 q 745 135 616 83 l 745 29 m 242 434 l 597 434 l 597 453 q 550 606 597 560 q 431 652 503 652 q 303 596 355 652 q 242 434 252 539 m 504 870 l 320 1071 l 471 1071 l 621 870 l 504 870 z "},"ê":{"ha":837,"x_min":96,"x_max":745,"o":"m 745 29 q 692 12 709 18 q 590 -10 640 -3 q 490 -17 541 -17 q 189 90 282 -17 q 96 360 96 197 q 191 637 96 522 q 444 753 286 753 q 659 672 577 753 q 740 376 740 591 l 740 334 l 238 334 q 323 138 246 192 q 508 83 401 83 q 745 135 616 83 l 745 29 m 242 434 l 597 434 l 597 453 q 550 606 597 560 q 431 652 503 652 q 303 596 355 652 q 242 434 252 539 m 522 1071 l 672 870 l 555 870 l 446 996 l 338 870 l 220 870 l 371 1071 l 522 1071 z "},"ë":{"ha":837,"x_min":96,"x_max":745,"o":"m 745 29 q 692 12 709 18 q 590 -10 640 -3 q 490 -17 541 -17 q 189 90 282 -17 q 96 360 96 197 q 191 637 96 522 q 444 753 286 753 q 659 672 577 753 q 740 376 740 591 l 740 334 l 238 334 q 323 138 246 192 q 508 83 401 83 q 745 135 616 83 l 745 29 m 242 434 l 597 434 l 597 453 q 550 606 597 560 q 431 652 503 652 q 303 596 355 652 q 242 434 252 539 m 279 870 l 279 987 l 396 987 l 396 870 l 279 870 m 547 870 l 547 987 l 664 987 l 664 870 l 547 870 z "},"í":{"ha":837,"x_min":117,"x_max":610,"o":"m 385 0 l 385 636 l 117 636 l 117 736 l 519 736 l 519 0 l 385 0 m 309 870 l 460 1071 l 610 1071 l 427 870 l 309 870 z "},"ì":{"ha":837,"x_min":117,"x_max":543,"o":"m 385 0 l 385 636 l 117 636 l 117 736 l 519 736 l 519 0 l 385 0 m 426 870 l 242 1071 l 393 1071 l 543 870 l 426 870 z "},"î":{"ha":837,"x_min":117,"x_max":669,"o":"m 385 0 l 385 636 l 117 636 l 117 736 l 519 736 l 519 0 l 385 0 m 519 1071 l 669 870 l 552 870 l 444 996 l 335 870 l 218 870 l 368 1071 l 519 1071 z "},"ï":{"ha":837,"x_min":117,"x_max":636,"o":"m 385 0 l 385 636 l 117 636 l 117 736 l 519 736 l 519 0 l 385 0 m 251 870 l 251 987 l 368 987 l 368 870 l 251 870 m 519 870 l 519 987 l 636 987 l 636 870 l 519 870 z "},"ñ":{"ha":837,"x_min":123,"x_max":718,"o":"m 123 0 l 123 736 l 257 736 l 249 598 l 257 598 q 368 713 302 673 q 508 753 434 753 q 671 682 613 753 q 708 607 699 648 q 718 504 718 566 l 718 0 l 584 0 l 584 467 q 580 535 584 509 q 562 582 576 561 q 522 615 547 605 q 467 626 496 626 q 363 590 413 626 q 257 481 313 555 l 257 0 l 123 0 m 646 1029 q 605 902 637 935 q 522 870 574 870 q 446 884 479 870 l 370 915 q 329 926 344 926 q 278 870 294 926 l 195 870 q 235 996 204 964 q 320 1029 267 1029 q 395 1015 362 1029 l 471 985 q 512 974 497 974 q 563 1029 547 974 l 646 1029 z "},"ó":{"ha":837,"x_min":71,"x_max":766,"o":"m 418 -17 q 161 90 252 -17 q 71 368 71 197 q 161 646 71 540 q 418 753 252 753 q 675 646 585 753 q 766 368 766 540 q 675 90 766 197 q 418 -17 585 -17 m 418 83 q 569 159 515 83 q 623 368 623 235 q 569 577 623 501 q 418 652 515 652 q 268 577 322 652 q 214 368 214 501 q 268 159 214 235 q 418 83 321 83 m 268 870 l 418 1071 l 569 1071 l 385 870 l 268 870 z "},"ò":{"ha":837,"x_min":71,"x_max":766,"o":"m 418 -17 q 161 90 252 -17 q 71 368 71 197 q 161 646 71 540 q 418 753 252 753 q 675 646 585 753 q 766 368 766 540 q 675 90 766 197 q 418 -17 585 -17 m 418 83 q 569 159 515 83 q 623 368 623 235 q 569 577 623 501 q 418 652 515 652 q 268 577 322 652 q 214 368 214 501 q 268 159 214 235 q 418 83 321 83 m 451 870 l 267 1071 l 418 1071 l 568 870 l 451 870 z "},"ô":{"ha":837,"x_min":71,"x_max":766,"o":"m 418 -17 q 161 90 252 -17 q 71 368 71 197 q 161 646 71 540 q 418 753 252 753 q 675 646 585 753 q 766 368 766 540 q 675 90 766 197 q 418 -17 585 -17 m 418 83 q 569 159 515 83 q 623 368 623 235 q 569 577 623 501 q 418 652 515 652 q 268 577 322 652 q 214 368 214 501 q 268 159 214 235 q 418 83 321 83 m 494 1071 l 644 870 l 527 870 l 418 996 l 310 870 l 193 870 l 343 1071 l 494 1071 z "},"ö":{"ha":837,"x_min":71,"x_max":766,"o":"m 418 -17 q 161 90 252 -17 q 71 368 71 197 q 161 646 71 540 q 418 753 252 753 q 675 646 585 753 q 766 368 766 540 q 675 90 766 197 q 418 -17 585 -17 m 418 83 q 569 159 515 83 q 623 368 623 235 q 569 577 623 501 q 418 652 515 652 q 268 577 322 652 q 214 368 214 501 q 268 159 214 235 q 418 83 321 83 m 226 870 l 226 987 l 343 987 l 343 870 l 226 870 m 494 870 l 494 987 l 611 987 l 611 870 l 494 870 z "},"õ":{"ha":837,"x_min":71,"x_max":766,"o":"m 418 -17 q 161 90 252 -17 q 71 368 71 197 q 161 646 71 540 q 418 753 252 753 q 675 646 585 753 q 766 368 766 540 q 675 90 766 197 q 418 -17 585 -17 m 418 83 q 569 159 515 83 q 623 368 623 235 q 569 577 623 501 q 418 652 515 652 q 268 577 322 652 q 214 368 214 501 q 268 159 214 235 q 418 83 321 83 m 644 1029 q 603 902 635 935 q 519 870 572 870 q 444 884 477 870 l 368 915 q 327 926 342 926 q 276 870 292 926 l 193 870 q 233 996 202 964 q 318 1029 264 1029 q 393 1015 360 1029 l 469 985 q 510 974 495 974 q 561 1029 545 974 l 644 1029 z "},"ú":{"ha":837,"x_min":119,"x_max":713,"o":"m 713 736 l 713 0 l 580 0 l 588 138 l 580 138 q 468 23 534 62 q 328 -17 402 -17 q 166 54 224 -17 q 129 130 138 89 q 119 233 119 170 l 119 736 l 253 736 l 253 269 q 257 201 253 227 q 275 155 260 175 q 315 121 290 132 q 370 110 340 110 q 474 146 424 110 q 580 255 524 182 l 580 736 l 713 736 m 266 870 l 416 1071 l 567 1071 l 383 870 l 266 870 z "},"ù":{"ha":837,"x_min":119,"x_max":713,"o":"m 713 736 l 713 0 l 580 0 l 588 138 l 580 138 q 468 23 534 62 q 328 -17 402 -17 q 166 54 224 -17 q 129 130 138 89 q 119 233 119 170 l 119 736 l 253 736 l 253 269 q 257 201 253 227 q 275 155 260 175 q 315 121 290 132 q 370 110 340 110 q 474 146 424 110 q 580 255 524 182 l 580 736 l 713 736 m 449 870 l 265 1071 l 416 1071 l 566 870 l 449 870 z "},"û":{"ha":837,"x_min":119,"x_max":713,"o":"m 713 736 l 713 0 l 580 0 l 588 138 l 580 138 q 468 23 534 62 q 328 -17 402 -17 q 166 54 224 -17 q 129 130 138 89 q 119 233 119 170 l 119 736 l 253 736 l 253 269 q 257 201 253 227 q 275 155 260 175 q 315 121 290 132 q 370 110 340 110 q 474 146 424 110 q 580 255 524 182 l 580 736 l 713 736 m 509 1071 l 659 870 l 542 870 l 433 996 l 325 870 l 208 870 l 358 1071 l 509 1071 z "},"ü":{"ha":837,"x_min":119,"x_max":713,"o":"m 713 736 l 713 0 l 580 0 l 588 138 l 580 138 q 468 23 534 62 q 328 -17 402 -17 q 166 54 224 -17 q 129 130 138 89 q 119 233 119 170 l 119 736 l 253 736 l 253 269 q 257 201 253 227 q 275 155 260 175 q 315 121 290 132 q 370 110 340 110 q 474 146 424 110 q 580 255 524 182 l 580 736 l 713 736 m 226 870 l 226 987 l 343 987 l 343 870 l 226 870 m 494 870 l 494 987 l 611 987 l 611 870 l 494 870 z "},"†":{"ha":837,"x_min":134,"x_max":703,"o":"m 351 -201 l 368 569 l 134 552 l 134 652 l 368 636 l 351 1004 l 485 1004 l 468 636 l 703 652 l 703 552 l 468 569 l 485 -201 l 351 -201 z "},"°":{"ha":837,"x_min":301,"x_max":535,"o":"m 418 795 q 335 830 369 795 q 301 912 301 866 q 335 993 301 958 q 418 1029 368 1029 q 502 993 468 1029 q 535 912 535 958 q 502 830 535 866 q 418 795 468 795 m 418 853 q 458 870 439 853 q 477 912 477 886 q 457 954 477 938 q 418 970 438 970 q 379 954 398 970 q 359 912 359 938 q 378 870 359 886 q 418 853 397 853 z "},"¢":{"ha":837,"x_min":134,"x_max":689,"o":"m 430 0 l 430 123 q 267 185 328 137 q 169 319 205 233 q 134 503 134 406 q 168 683 134 598 q 264 818 203 768 q 430 886 326 867 l 430 1004 l 513 1004 l 513 886 q 688 855 588 880 l 688 741 q 598 771 629 763 q 513 787 568 780 l 513 220 q 607 234 578 226 q 689 267 635 241 l 689 164 q 600 134 629 140 q 513 121 572 128 l 513 0 l 430 0 m 430 231 l 430 781 q 317 693 357 765 q 276 504 276 622 q 430 231 276 286 z "},"£":{"ha":837,"x_min":170,"x_max":724,"o":"m 170 0 l 170 117 q 252 169 223 138 q 293 239 281 200 q 305 327 305 277 l 305 486 l 192 486 l 192 586 l 305 586 l 305 732 q 338 904 305 844 q 427 996 371 963 q 569 1029 483 1029 q 713 1009 633 1029 l 713 895 q 564 928 623 928 q 474 898 509 928 q 439 785 439 867 l 439 586 l 573 586 l 573 486 l 439 486 l 439 389 q 430 295 439 340 q 404 217 422 250 q 323 117 387 183 l 724 117 l 724 0 l 170 0 z "},"§":{"ha":837,"x_min":147,"x_max":696,"o":"m 147 -173 l 147 -50 q 249 -94 214 -82 q 331 -116 283 -106 q 415 -125 380 -125 q 520 -96 467 -125 q 574 -5 574 -67 q 536 81 574 45 q 416 159 498 117 l 337 199 q 201 297 245 246 q 157 418 157 348 q 171 496 157 457 q 254 623 185 534 q 181 701 205 659 q 157 791 157 743 q 195 909 157 852 q 297 997 233 966 q 461 1029 361 1029 q 660 1001 558 1029 l 660 888 q 454 928 552 928 q 326 895 375 928 q 277 810 277 862 q 296 754 277 779 q 386 693 315 729 l 474 649 q 637 535 591 591 q 683 411 683 479 q 665 321 683 370 q 583 203 647 272 q 678 99 659 147 q 696 11 696 51 q 659 -106 696 -50 q 553 -193 621 -163 q 405 -222 486 -222 q 147 -173 296 -222 m 520 245 q 562 323 555 300 q 569 370 569 347 q 539 454 569 418 q 429 530 509 489 l 378 556 l 347 571 q 324 583 339 574 q 277 458 277 515 q 308 373 277 406 q 406 304 339 340 l 459 277 l 493 260 q 520 245 503 255 z "},"•":{"ha":837,"x_min":318,"x_max":519,"o":"m 418 297 q 348 327 377 297 q 318 397 318 356 q 348 468 318 439 q 418 498 378 498 q 489 468 459 498 q 519 397 519 439 q 489 327 519 356 q 418 297 460 297 z "},"¶":{"ha":837,"x_min":85,"x_max":679,"o":"m 344 -201 l 344 502 q 139 610 193 536 q 85 783 85 684 q 107 898 85 846 q 181 976 130 949 q 361 1004 233 1004 l 679 1004 l 679 -201 l 595 -201 l 595 920 l 428 920 l 428 -201 l 344 -201 z "},"ß":{"ha":837,"x_min":130,"x_max":798,"o":"m 130 0 l 130 787 q 156 969 130 911 q 237 1057 183 1027 q 391 1088 290 1088 q 532 1064 481 1088 q 611 998 583 1040 q 640 908 640 956 q 562 722 640 824 l 531 683 q 499 612 499 642 q 541 538 499 573 l 682 417 q 798 205 798 317 q 734 44 798 106 q 568 -17 671 -17 q 361 22 470 -17 l 361 138 q 550 83 485 83 q 644 114 616 83 q 672 190 672 144 q 658 249 672 224 q 591 319 644 274 l 460 433 q 380 572 380 501 q 446 733 380 639 l 469 767 q 495 822 485 789 q 506 884 506 854 q 476 962 506 936 q 385 987 446 987 q 289 946 314 987 q 263 837 263 905 l 263 0 l 130 0 z "},"®":{"ha":837,"x_min":117,"x_max":720,"o":"m 418 427 q 269 466 337 427 q 159 575 200 505 q 117 728 117 646 q 158 878 117 808 q 267 988 198 948 q 418 1029 336 1029 q 570 988 501 1029 q 680 878 640 948 q 720 728 720 808 q 678 575 720 646 q 568 466 637 505 q 418 427 500 427 m 418 494 q 535 525 481 494 q 621 611 588 555 q 653 728 653 666 q 622 844 653 789 q 536 930 590 899 q 418 962 482 962 q 301 930 355 962 q 216 844 247 899 q 184 728 184 789 q 217 610 184 665 q 302 525 249 555 q 418 494 355 494 m 301 552 l 301 912 l 401 912 q 508 884 481 912 q 536 815 536 857 q 517 754 536 781 q 467 711 498 728 l 551 552 l 476 552 l 399 698 l 368 698 l 368 552 l 301 552 m 368 749 l 391 749 q 449 766 431 749 q 466 807 466 783 q 455 843 466 827 q 399 860 445 860 l 368 860 l 368 749 z "},"©":{"ha":837,"x_min":42,"x_max":795,"o":"m 42 501 q 146 908 42 787 q 423 1029 250 1029 q 619 975 537 1029 q 748 812 701 922 q 795 503 795 702 q 691 96 795 217 q 414 -25 587 -25 q 217 30 299 -25 q 89 194 135 85 q 42 501 42 303 m 125 501 q 205 152 125 253 q 415 50 285 50 q 627 146 543 50 q 711 503 711 243 q 632 852 711 751 q 422 954 553 954 q 210 858 294 954 q 125 501 125 762 m 604 244 q 444 203 520 203 q 260 284 332 203 q 189 503 189 364 q 252 716 189 629 q 451 803 315 803 q 603 776 522 803 l 603 678 q 449 722 530 722 q 328 660 366 722 q 290 509 290 598 q 339 350 290 406 q 467 293 388 293 q 515 298 488 293 q 604 332 543 302 l 604 244 z "},"™":{"ha":837,"x_min":0,"x_max":820,"o":"m 125 502 l 125 920 l 0 920 l 0 1004 l 499 1004 l 599 737 l 696 1004 l 820 1004 l 820 502 l 703 502 l 703 827 l 615 586 l 540 586 l 460 798 l 460 502 l 376 502 l 376 920 l 243 920 l 243 502 l 125 502 z "},"´":{"ha":837,"x_min":251,"x_max":552,"o":"m 251 870 l 401 1071 l 552 1071 l 368 870 l 251 870 z "},"¨":{"ha":837,"x_min":226,"x_max":611,"o":"m 226 870 l 226 987 l 343 987 l 343 870 l 226 870 m 494 870 l 494 987 l 611 987 l 611 870 l 494 870 z "},"≠":{"ha":837,"x_min":58,"x_max":778,"o":"m 58 427 l 58 527 l 475 527 l 571 661 l 692 661 l 599 527 l 778 527 l 778 427 l 530 427 l 436 293 l 778 293 l 778 193 l 365 193 l 272 58 l 149 58 l 241 193 l 58 193 l 58 293 l 313 293 l 407 427 l 58 427 z "},"Æ":{"ha":837,"x_min":0,"x_max":812,"o":"m 0 0 l 383 1004 l 778 1004 l 778 903 l 552 903 l 552 581 l 732 581 l 732 481 l 552 481 l 552 100 l 812 100 l 812 0 l 418 0 l 418 247 l 210 247 l 117 0 l 0 0 m 249 347 l 418 347 l 418 791 l 249 347 z "},"Ø":{"ha":837,"x_min":41,"x_max":795,"o":"m 135 130 q 41 505 41 279 q 136 878 41 726 q 425 1029 231 1029 q 517 1019 473 1029 q 632 956 560 1008 l 678 1029 l 795 1029 l 701 875 q 794 500 794 726 q 697 123 794 272 q 419 -25 600 -25 q 328 -14 371 -25 q 275 4 301 -7 q 204 51 248 16 l 159 -25 l 41 -25 l 135 130 m 212 261 l 570 854 q 539 886 552 874 q 484 918 515 907 q 419 928 453 928 q 242 820 301 928 q 184 515 184 711 q 212 261 184 393 m 266 153 q 298 121 286 130 q 357 88 322 100 q 424 75 391 75 q 591 181 530 75 q 652 488 652 287 q 623 745 652 613 l 266 153 z "},"∞":{"ha":837,"x_min":17,"x_max":821,"o":"m 413 273 q 315 126 370 176 q 201 75 261 75 q 72 156 126 75 q 17 342 17 237 q 69 544 17 451 q 209 636 121 636 q 309 597 263 636 q 380 515 355 557 l 410 465 l 426 438 q 519 581 463 526 q 636 636 575 636 q 766 557 712 636 q 821 368 821 479 q 764 161 821 246 q 627 75 708 75 q 514 127 567 75 q 429 242 461 179 l 413 273 m 358 357 l 342 385 q 291 458 332 405 q 205 512 250 512 q 145 472 171 512 q 119 347 119 431 q 144 222 119 272 q 205 174 170 171 q 272 213 239 176 q 358 357 304 250 m 479 353 l 491 330 q 543 253 502 309 q 630 197 585 197 q 691 239 664 197 q 718 363 718 280 q 692 491 718 446 q 629 535 667 535 q 551 475 595 535 q 479 353 507 416 z "},"±":{"ha":837,"x_min":58,"x_max":778,"o":"m 58 0 l 58 100 l 778 100 l 778 0 l 58 0 m 368 201 l 368 410 l 58 410 l 58 511 l 368 511 l 368 720 l 469 720 l 469 511 l 778 511 l 778 410 l 469 410 l 469 201 l 368 201 z "},"≤":{"ha":837,"x_min":58,"x_max":778,"o":"m 58 -100 l 58 0 l 778 0 l 778 -100 l 58 -100 m 778 100 l 58 460 l 778 820 l 778 708 l 283 460 l 778 213 l 778 100 z "},"≥":{"ha":837,"x_min":58,"x_max":778,"o":"m 58 -100 l 58 0 l 778 0 l 778 -100 l 58 -100 m 58 820 l 778 460 l 58 100 l 58 213 l 553 460 l 58 708 l 58 820 z "},"¥":{"ha":837,"x_min":34,"x_max":820,"o":"m 350 0 l 350 180 l 149 180 l 149 272 l 350 272 l 350 410 l 149 410 l 149 502 l 348 502 l 34 1004 l 194 1004 l 441 610 l 705 1004 l 820 1004 l 489 502 l 684 502 l 684 410 l 484 410 l 484 272 l 684 272 l 684 180 l 484 180 l 484 0 l 350 0 z "},"µ":{"ha":837,"x_min":121,"x_max":715,"o":"m 121 -201 l 121 736 l 255 736 l 255 268 q 272 162 255 189 q 313 124 288 136 q 366 113 337 113 q 484 156 429 113 q 582 261 539 199 l 582 736 l 715 736 l 715 0 l 582 0 l 590 139 l 582 139 q 469 14 522 45 q 364 -17 416 -17 q 320 -14 346 -17 q 255 15 295 -10 l 255 -201 l 121 -201 z "},"∂":{"ha":837,"x_min":117,"x_max":724,"o":"m 146 880 q 224 996 182 953 q 319 1063 267 1038 q 427 1088 370 1088 q 588 1032 516 1088 q 692 865 659 977 q 724 617 724 753 q 673 291 724 434 q 526 66 622 149 q 321 -17 430 -17 q 169 52 222 -17 q 117 219 117 120 q 174 449 117 333 q 319 628 232 564 q 490 692 406 692 q 547 683 519 692 q 621 645 575 674 l 621 665 q 551 887 621 801 q 387 973 481 973 q 306 963 347 973 q 226 934 264 953 q 146 880 187 915 m 621 525 q 553 577 587 560 q 482 595 518 595 q 370 550 425 595 q 279 425 315 505 q 243 269 243 345 q 275 138 243 191 q 365 86 307 86 q 525 205 448 86 q 621 525 602 325 z "},"∑":{"ha":837,"x_min":33,"x_max":826,"o":"m 33 0 l 33 117 l 431 491 l 62 903 l 62 1004 l 793 1004 l 793 903 l 241 903 l 596 509 l 180 117 l 826 117 l 826 0 l 33 0 z "},"∏":{"ha":837,"x_min":46,"x_max":791,"o":"m 113 0 l 113 903 l 46 903 l 46 1004 l 791 1004 l 791 903 l 724 903 l 724 0 l 590 0 l 590 903 l 247 903 l 247 0 l 113 0 z "},"π":{"ha":837,"x_min":19,"x_max":822,"o":"m 186 0 l 186 619 l 153 619 q 95 615 128 619 q 19 576 62 610 l 19 714 q 169 736 77 736 l 822 736 l 822 619 l 688 619 l 688 254 q 717 104 688 161 q 810 0 745 47 l 639 0 q 590 65 608 31 q 563 138 572 99 q 555 271 555 178 l 555 619 l 320 619 l 320 0 l 186 0 z "},"∫":{"ha":837,"x_min":161,"x_max":676,"o":"m 555 947 l 547 947 q 497 900 515 947 q 479 700 479 852 l 485 440 l 485 382 q 430 -82 485 37 q 267 -201 375 -201 q 186 -171 212 -201 q 161 -116 161 -141 q 170 -83 161 -99 q 193 -57 178 -68 q 226 -47 208 -47 q 271 -66 256 -47 q 286 -103 286 -86 q 283 -119 286 -108 l 292 -120 q 337 -82 316 -120 q 359 107 359 -45 l 357 187 l 351 388 l 351 446 q 363 718 351 589 q 424 938 375 846 q 572 1029 473 1029 q 650 1000 625 1029 q 676 944 676 972 q 659 898 676 924 q 609 873 642 873 q 567 891 581 873 q 552 930 552 910 q 555 947 552 935 z "},"ª":{"ha":837,"x_min":161,"x_max":701,"o":"m 513 559 q 414 504 461 523 q 324 486 367 486 q 208 530 255 486 q 161 639 161 574 q 228 770 161 716 q 456 825 296 825 l 503 825 l 503 844 q 470 923 503 900 q 388 945 437 945 q 296 930 351 945 q 187 885 241 915 l 187 984 q 406 1029 289 1029 q 569 991 517 1029 q 621 852 621 954 l 621 657 q 627 603 621 616 q 644 585 633 590 q 670 580 654 580 q 701 587 684 580 l 701 509 q 612 486 657 486 q 554 500 580 486 q 513 559 528 515 m 503 636 l 503 741 l 469 741 q 324 718 372 741 q 276 646 276 694 q 299 594 276 614 q 353 575 321 575 q 430 590 393 575 q 503 636 467 606 z "},"º":{"ha":837,"x_min":151,"x_max":686,"o":"m 418 486 q 214 563 278 486 q 151 757 151 640 q 215 952 151 875 q 413 1029 279 1029 q 623 951 559 1029 q 686 758 686 873 q 622 563 686 640 q 418 486 558 486 m 418 569 q 526 620 492 569 q 560 753 560 670 q 527 892 560 839 q 418 945 494 945 q 310 892 343 945 q 276 753 276 839 q 311 620 276 670 q 418 569 345 569 z "},"Ω":{"ha":837,"x_min":33,"x_max":803,"o":"m 376 100 l 376 0 l 33 0 l 33 100 l 253 100 q 41 590 41 350 q 93 814 41 709 q 229 974 144 919 q 418 1029 314 1029 q 607 974 522 1029 q 743 814 692 919 q 795 590 795 709 q 742 348 795 470 q 583 100 689 225 l 803 100 l 803 0 l 460 0 l 460 100 q 601 312 551 189 q 650 568 650 435 q 594 823 650 717 q 418 928 537 928 q 242 823 299 928 q 186 568 186 717 q 235 312 186 435 q 376 100 285 189 z "},"æ":{"ha":837,"x_min":33,"x_max":817,"o":"m 402 85 q 367 44 383 61 q 305 0 341 16 q 229 -17 269 -17 q 150 0 190 -17 q 85 46 110 18 q 46 113 60 74 q 33 195 33 153 q 119 375 33 307 q 309 442 205 442 l 350 442 l 350 521 q 346 576 350 555 q 328 616 342 596 q 291 645 311 637 q 243 652 271 652 q 96 616 180 652 l 96 718 q 281 753 189 753 q 374 739 335 753 q 446 672 413 726 q 524 740 490 727 q 595 753 557 753 q 761 661 705 753 q 817 396 817 569 l 817 350 l 484 350 l 485 315 q 530 137 485 184 q 638 90 574 90 q 710 100 665 90 q 757 112 738 106 q 812 134 777 118 l 812 28 q 602 -17 671 -17 q 532 -9 566 -17 q 465 17 492 1 q 402 85 437 33 m 350 153 l 350 359 l 321 359 q 216 321 265 359 q 167 211 167 283 q 196 125 167 153 q 262 97 225 97 q 310 111 288 97 q 350 153 332 125 m 484 442 l 674 442 l 674 474 q 654 609 674 565 q 591 652 635 652 q 518 600 543 652 q 487 473 494 548 l 484 442 z "},"ø":{"ha":837,"x_min":71,"x_max":766,"o":"m 71 -17 l 153 96 q 71 370 71 211 q 161 646 71 540 q 416 753 251 753 q 493 748 449 753 q 605 705 536 743 l 641 753 l 766 753 l 681 639 q 705 605 698 616 q 751 496 737 556 q 765 370 765 436 q 673 89 765 194 q 422 -17 582 -17 q 342 -13 386 -17 q 231 30 298 -9 l 196 -17 l 71 -17 m 240 211 l 535 610 q 470 647 495 641 q 418 652 444 652 q 268 579 323 652 q 213 357 213 506 q 216 297 213 322 q 240 211 218 272 m 300 123 q 366 90 342 96 q 417 83 390 83 q 568 157 512 83 q 623 381 623 231 q 619 446 623 418 q 597 525 614 474 l 300 123 z "},"¿":{"ha":837,"x_min":100,"x_max":726,"o":"m 385 586 l 385 736 l 553 736 l 553 586 l 385 586 m 536 452 l 536 441 q 522 341 536 389 q 481 252 509 294 q 386 154 454 211 l 338 115 q 241 -44 241 33 q 301 -148 241 -111 q 469 -184 361 -184 q 625 -164 545 -184 l 625 -49 l 726 -49 l 726 -245 q 564 -279 624 -274 q 446 -284 505 -284 q 183 -223 267 -284 q 100 -63 100 -161 q 230 158 100 52 l 298 212 q 385 317 368 269 q 402 412 402 364 l 402 452 l 536 452 z "},"¡":{"ha":837,"x_min":334,"x_max":502,"o":"m 468 452 l 485 -67 l 485 -268 l 351 -268 l 351 -67 l 368 452 l 468 452 m 334 586 l 334 736 l 502 736 l 502 586 l 334 586 z "},"¬":{"ha":837,"x_min":58,"x_max":778,"o":"m 58 435 l 58 536 l 778 536 l 778 201 l 677 201 l 677 435 l 58 435 z "},"√":{"ha":837,"x_min":0,"x_max":837,"o":"m 43 220 l 0 292 l 186 402 l 387 -26 l 732 1096 l 837 1096 l 439 -201 l 357 -201 l 135 274 l 43 220 z "},"ƒ":{"ha":837,"x_min":155,"x_max":777,"o":"m 155 -201 l 290 486 l 182 486 l 182 586 l 307 586 l 322 645 q 415 904 370 842 q 521 998 460 967 q 654 1029 581 1029 q 777 1013 702 1029 l 755 909 q 645 928 692 928 q 533 882 571 928 q 467 701 495 836 l 444 586 l 561 586 l 561 486 l 427 486 l 291 -201 l 155 -201 z "},"≈":{"ha":837,"x_min":58,"x_max":778,"o":"m 58 123 q 105 278 58 210 q 243 347 153 347 q 310 337 279 347 q 385 302 340 328 l 485 247 q 602 204 561 204 q 643 216 622 204 q 674 248 664 227 q 686 324 684 268 l 778 324 q 731 169 778 237 q 593 100 684 100 q 527 110 557 100 q 451 144 496 119 l 351 201 q 234 243 275 243 q 193 232 214 243 q 162 200 172 220 q 151 123 153 180 l 58 123 m 58 395 q 105 551 58 482 q 243 619 153 619 q 310 610 279 619 q 385 575 340 600 l 485 519 q 602 476 561 476 q 643 488 622 476 q 674 519 664 499 q 686 596 684 540 l 778 596 q 731 441 778 509 q 593 373 684 373 q 527 382 557 373 q 451 417 496 391 l 351 473 q 234 515 275 515 q 193 504 214 515 q 162 472 172 492 q 151 395 153 452 l 58 395 z "},"∆":{"ha":837,"x_min":21,"x_max":816,"o":"m 21 0 l 21 117 l 351 1004 l 484 1004 l 816 117 l 816 0 l 21 0 m 136 117 l 673 117 l 404 844 l 136 117 z "},"«":{"ha":837,"x_min":79,"x_max":742,"o":"m 380 673 l 445 618 l 231 364 l 444 113 l 382 58 l 79 364 l 380 673 m 677 673 l 742 618 l 528 364 l 741 113 l 679 58 l 376 364 l 677 673 z "},"»":{"ha":837,"x_min":95,"x_max":758,"o":"m 160 58 l 95 114 l 309 368 l 96 620 l 158 673 l 460 368 l 160 58 m 457 58 l 392 114 l 606 368 l 393 620 l 455 673 l 758 368 l 457 58 z "},"…":{"ha":837,"x_min":73,"x_max":764,"o":"m 73 0 l 73 134 l 206 134 l 206 0 l 73 0 m 351 0 l 351 134 l 486 134 l 486 0 l 351 0 m 630 0 l 630 134 l 764 134 l 764 0 l 630 0 z "}," ":{"ha":837,"x_min":0,"x_max":0,"o":""},"À":{"ha":837,"x_min":8,"x_max":828,"o":"m 8 0 l 351 1004 l 485 1004 l 828 0 l 686 0 l 589 284 l 220 284 l 123 0 l 8 0 m 254 385 l 555 385 l 405 825 l 254 385 m 451 1088 l 267 1289 l 418 1289 l 568 1088 l 451 1088 z "},"Ã":{"ha":837,"x_min":8,"x_max":828,"o":"m 8 0 l 351 1004 l 485 1004 l 828 0 l 686 0 l 589 284 l 220 284 l 123 0 l 8 0 m 254 385 l 555 385 l 405 825 l 254 385 m 644 1246 q 603 1120 635 1152 q 519 1088 572 1088 q 444 1101 477 1088 l 368 1133 q 327 1143 342 1143 q 276 1088 292 1143 l 193 1088 q 233 1214 202 1181 q 318 1246 264 1246 q 393 1233 360 1246 l 469 1202 q 510 1192 495 1192 q 561 1246 545 1192 l 644 1246 z "},"Õ":{"ha":837,"x_min":42,"x_max":795,"o":"m 418 -25 q 139 123 237 -25 q 42 502 42 272 q 140 881 42 732 q 418 1029 237 1029 q 697 881 600 1029 q 795 502 795 732 q 697 123 795 272 q 418 -25 600 -25 m 418 75 q 593 181 532 75 q 653 503 653 287 q 593 823 653 718 q 418 928 532 928 q 245 823 305 928 q 184 503 184 718 q 244 181 184 287 q 418 75 304 75 m 644 1246 q 603 1120 635 1152 q 519 1088 572 1088 q 444 1101 477 1088 l 368 1133 q 327 1143 342 1143 q 276 1088 292 1143 l 193 1088 q 233 1214 202 1181 q 318 1246 264 1246 q 393 1233 360 1246 l 469 1202 q 510 1192 495 1192 q 561 1246 545 1192 l 644 1246 z "},"Œ":{"ha":837,"x_min":50,"x_max":825,"o":"m 427 0 q 369 -19 397 -12 q 315 -25 341 -25 q 116 89 182 -25 q 50 515 50 203 q 112 908 50 786 q 317 1029 174 1029 q 364 1026 342 1029 q 426 1004 387 1023 l 787 1004 l 787 903 l 559 903 l 559 579 l 743 579 l 743 479 l 559 479 l 559 100 l 825 100 l 825 0 l 427 0 m 425 265 l 425 747 q 424 834 425 807 q 410 884 422 861 q 378 920 399 906 q 330 933 357 933 q 226 854 260 933 q 193 499 193 776 q 227 151 193 230 q 330 71 260 71 q 379 85 357 71 q 410 120 400 99 q 423 169 421 144 q 425 265 425 193 z "},"œ":{"ha":837,"x_min":33,"x_max":819,"o":"m 427 83 q 401 41 412 55 q 345 -1 380 14 q 270 -17 309 -17 q 97 89 161 -17 q 33 363 33 194 q 94 642 33 532 q 277 753 155 753 q 360 734 324 753 q 435 643 396 715 q 519 734 481 716 q 602 753 557 753 q 762 664 705 753 q 819 386 819 576 l 819 349 l 505 349 l 505 326 q 548 140 505 193 q 659 87 591 87 q 714 94 683 87 q 817 139 745 100 l 817 29 q 619 -17 702 -17 q 545 -7 579 -17 q 486 18 512 1 q 427 83 460 35 m 273 84 q 346 142 321 84 q 371 355 371 201 q 346 584 371 515 q 271 652 320 652 q 197 569 219 652 q 176 368 176 486 q 195 174 176 263 q 273 84 214 84 m 505 441 l 677 441 l 677 473 q 674 557 677 527 q 661 612 671 587 q 636 642 652 631 q 601 652 621 652 q 530 600 553 652 q 506 478 506 547 l 505 441 z "},"–":{"ha":837,"x_min":92,"x_max":745,"o":"m 92 368 l 92 452 l 745 452 l 745 368 l 92 368 z "},"—":{"ha":837,"x_min":42,"x_max":795,"o":"m 42 368 l 42 452 l 795 452 l 795 368 l 42 368 z "},"“":{"ha":837,"x_min":168,"x_max":669,"o":"m 168 703 l 168 853 q 212 1022 168 974 q 335 1071 257 1071 l 335 1004 q 264 905 264 1004 l 264 870 l 335 870 l 335 703 l 168 703 m 502 703 l 502 853 q 547 1022 502 974 q 669 1071 592 1071 l 669 1004 q 598 905 598 1004 l 598 870 l 669 870 l 669 703 l 502 703 z "},"”":{"ha":837,"x_min":168,"x_max":669,"o":"m 335 1071 l 335 920 q 290 751 335 800 q 168 703 245 703 l 168 770 q 239 868 239 770 l 239 903 l 168 903 l 168 1071 l 335 1071 m 669 1071 l 669 920 q 625 751 669 800 q 502 703 580 703 l 502 770 q 573 868 573 770 l 573 903 l 502 903 l 502 1071 l 669 1071 z "},"‘":{"ha":837,"x_min":318,"x_max":519,"o":"m 519 1071 l 519 1004 q 484 994 494 1001 q 465 974 473 987 q 446 935 454 958 q 435 853 439 913 l 519 853 l 519 652 l 318 652 l 318 774 q 342 942 318 886 q 409 1033 366 998 q 519 1071 452 1067 z "},"’":{"ha":837,"x_min":318,"x_max":519,"o":"m 318 652 l 318 720 q 353 730 343 723 q 372 749 363 737 q 391 789 383 766 q 401 870 398 811 l 318 870 l 318 1071 l 519 1071 l 519 949 q 495 782 519 838 q 428 691 471 726 q 318 652 385 656 z "},"÷":{"ha":837,"x_min":58,"x_max":778,"o":"m 342 0 l 342 151 l 494 151 l 494 0 l 342 0 m 58 309 l 58 410 l 778 410 l 778 309 l 58 309 m 342 569 l 342 720 l 494 720 l 494 569 l 342 569 z "},"◊":{"ha":837,"x_min":17,"x_max":820,"o":"m 418 0 l 17 401 l 418 803 l 820 401 l 418 0 m 418 142 l 678 401 l 418 661 l 159 401 l 418 142 z "},"ÿ":{"ha":837,"x_min":58,"x_max":800,"o":"m 96 -268 l 96 -168 l 151 -168 q 268 -138 231 -168 q 303 -98 290 -120 q 334 -38 316 -76 l 367 33 l 58 736 l 196 736 l 437 185 l 680 736 l 800 736 l 429 -94 q 322 -231 388 -186 q 251 -261 290 -254 q 153 -268 212 -268 l 96 -268 m 248 870 l 248 987 l 366 987 l 366 870 l 248 870 m 516 870 l 516 987 l 633 987 l 633 870 l 516 870 z "},"Ÿ":{"ha":837,"x_min":22,"x_max":832,"o":"m 352 0 l 352 423 l 22 1004 l 176 1004 l 434 549 l 705 1004 l 832 1004 l 486 423 l 486 0 l 352 0 m 234 1088 l 234 1205 l 351 1205 l 351 1088 l 234 1088 m 502 1088 l 502 1205 l 619 1205 l 619 1088 l 502 1088 z "},"∕":{"ha":837,"x_min":0,"x_max":837,"o":"m 0 -25 l 715 1029 l 837 1029 l 121 -25 l 0 -25 z "},"€":{"ha":837,"x_min":26,"x_max":750,"o":"m 115 643 l 117 647 q 256 928 149 827 q 521 1029 363 1029 q 739 974 623 1029 l 739 850 q 521 929 626 929 q 367 867 437 929 q 257 643 297 806 l 623 643 l 602 542 l 244 542 l 244 467 l 245 463 l 587 463 l 567 361 l 258 361 l 260 357 q 367 158 285 233 q 557 83 448 83 q 651 99 608 83 q 750 149 694 115 l 750 39 q 522 -25 631 -25 q 426 -14 473 -25 q 337 20 379 -2 q 261 71 294 42 q 205 132 229 100 q 164 198 181 164 q 131 284 147 231 q 114 357 114 337 l 114 361 l 26 361 l 47 463 l 103 463 l 103 542 l 26 542 l 47 643 l 115 643 z "},"‹":{"ha":837,"x_min":235,"x_max":601,"o":"m 536 673 l 601 618 l 387 364 l 600 113 l 538 58 l 235 364 l 536 673 z "},"›":{"ha":837,"x_min":235,"x_max":601,"o":"m 300 58 l 235 114 l 449 368 l 237 620 l 298 673 l 601 368 l 300 58 z "},"":{"ha":837,"x_min":83,"x_max":711,"o":"m 176 0 l 176 619 l 83 619 l 83 720 l 176 720 l 176 840 q 232 1021 176 955 q 406 1088 288 1088 q 502 1078 444 1088 l 502 970 q 406 987 441 987 q 331 955 353 987 q 309 857 309 923 l 309 720 l 711 720 l 711 0 l 577 0 l 577 619 l 309 619 l 309 0 l 176 0 m 577 870 l 577 1004 l 711 1004 l 711 870 l 577 870 z "},"":{"ha":837,"x_min":83,"x_max":711,"o":"m 176 0 l 176 619 l 83 619 l 83 720 l 176 720 l 176 817 q 204 974 176 921 q 287 1057 233 1027 q 429 1088 341 1088 q 497 1084 461 1088 q 573 1071 533 1080 l 711 1071 l 711 0 l 577 0 l 577 962 q 498 981 538 975 q 420 987 459 987 q 338 959 366 987 q 309 847 309 930 l 309 720 l 460 720 l 460 619 l 309 619 l 309 0 l 176 0 z "},"‡":{"ha":837,"x_min":134,"x_max":703,"o":"m 351 -201 l 368 168 l 134 151 l 134 251 l 368 234 l 368 569 l 134 552 l 134 652 l 368 636 l 351 1004 l 485 1004 l 468 636 l 703 652 l 703 552 l 468 569 l 468 234 l 703 251 l 703 151 l 468 168 l 485 -201 l 351 -201 z "},"∙":{"ha":837,"x_min":334,"x_max":502,"o":"m 334 284 l 334 452 l 502 452 l 502 284 l 334 284 z "},"‚":{"ha":837,"x_min":318,"x_max":519,"o":"m 318 -218 l 318 -151 q 353 -141 343 -148 q 372 -121 363 -134 q 391 -81 383 -104 q 401 0 398 -59 l 318 0 l 318 201 l 519 201 l 519 79 q 495 -89 519 -32 q 428 -179 471 -145 q 318 -218 385 -214 z "},"„":{"ha":837,"x_min":168,"x_max":669,"o":"m 335 168 l 335 17 q 290 -152 335 -104 q 168 -201 245 -201 l 168 -134 q 239 -35 239 -134 l 239 0 l 168 0 l 168 168 l 335 168 m 669 168 l 669 17 q 625 -152 669 -104 q 502 -201 580 -201 l 502 -134 q 573 -35 573 -134 l 573 0 l 502 0 l 502 168 l 669 168 z "},"‰":{"ha":837,"x_min":0,"x_max":837,"o":"m 0 -25 l 454 1029 l 545 1029 l 91 -25 l 0 -25 m 140 569 q 50 616 89 569 q 11 787 11 663 q 50 957 11 909 q 140 1004 88 1004 q 232 957 193 1004 q 271 787 271 909 q 232 616 271 663 q 140 569 193 569 m 140 636 q 175 674 163 636 q 186 787 186 711 q 175 900 186 862 q 140 937 163 937 q 106 900 118 937 q 95 787 95 862 q 106 674 95 711 q 140 636 118 636 m 406 0 q 315 47 353 0 q 276 218 276 94 q 315 388 276 340 q 406 435 353 435 q 497 388 458 435 q 536 218 536 340 q 497 47 536 94 q 406 0 458 0 m 406 67 q 440 105 429 67 q 452 218 452 142 q 440 331 452 293 q 405 368 429 368 q 371 331 382 368 q 359 218 359 293 q 371 105 359 142 q 406 67 382 67 m 707 0 q 616 47 655 0 q 577 218 577 94 q 616 388 577 340 q 707 435 654 435 q 798 388 760 435 q 837 218 837 340 q 798 47 837 94 q 707 0 759 0 m 707 67 q 741 105 730 67 q 753 218 753 142 q 741 331 753 293 q 707 368 730 368 q 673 331 684 368 q 661 218 661 293 q 673 105 661 142 q 707 67 684 67 z "},"Â":{"ha":837,"x_min":8,"x_max":828,"o":"m 8 0 l 351 1004 l 485 1004 l 828 0 l 686 0 l 589 284 l 220 284 l 123 0 l 8 0 m 254 385 l 555 385 l 405 825 l 254 385 m 494 1289 l 644 1088 l 527 1088 l 418 1213 l 310 1088 l 193 1088 l 343 1289 l 494 1289 z "},"Ê":{"ha":837,"x_min":146,"x_max":766,"o":"m 146 0 l 146 1004 l 734 1004 l 734 903 l 280 903 l 280 581 l 665 581 l 665 481 l 280 481 l 280 100 l 766 100 l 766 0 l 146 0 m 532 1289 l 682 1088 l 565 1088 l 456 1213 l 348 1088 l 231 1088 l 381 1289 l 532 1289 z "},"Á":{"ha":837,"x_min":8,"x_max":828,"o":"m 8 0 l 351 1004 l 485 1004 l 828 0 l 686 0 l 589 284 l 220 284 l 123 0 l 8 0 m 254 385 l 555 385 l 405 825 l 254 385 m 284 1088 l 435 1289 l 585 1289 l 401 1088 l 284 1088 z "},"Ë":{"ha":837,"x_min":146,"x_max":766,"o":"m 146 0 l 146 1004 l 734 1004 l 734 903 l 280 903 l 280 581 l 665 581 l 665 481 l 280 481 l 280 100 l 766 100 l 766 0 l 146 0 m 263 1088 l 263 1205 l 380 1205 l 380 1088 l 263 1088 m 531 1088 l 531 1205 l 648 1205 l 648 1088 l 531 1088 z "},"È":{"ha":837,"x_min":146,"x_max":766,"o":"m 146 0 l 146 1004 l 734 1004 l 734 903 l 280 903 l 280 581 l 665 581 l 665 481 l 280 481 l 280 100 l 766 100 l 766 0 l 146 0 m 489 1088 l 305 1289 l 456 1289 l 606 1088 l 489 1088 z "},"Í":{"ha":837,"x_min":117,"x_max":720,"o":"m 117 0 l 117 100 l 351 100 l 351 903 l 117 903 l 117 1004 l 720 1004 l 720 903 l 486 903 l 486 100 l 720 100 l 720 0 l 117 0 m 293 1088 l 444 1289 l 594 1289 l 410 1088 l 293 1088 z "},"Î":{"ha":837,"x_min":117,"x_max":720,"o":"m 117 0 l 117 100 l 351 100 l 351 903 l 117 903 l 117 1004 l 720 1004 l 720 903 l 486 903 l 486 100 l 720 100 l 720 0 l 117 0 m 494 1289 l 644 1088 l 527 1088 l 418 1213 l 310 1088 l 193 1088 l 343 1289 l 494 1289 z "},"Ï":{"ha":837,"x_min":117,"x_max":720,"o":"m 117 0 l 117 100 l 351 100 l 351 903 l 117 903 l 117 1004 l 720 1004 l 720 903 l 486 903 l 486 100 l 720 100 l 720 0 l 117 0 m 226 1088 l 226 1205 l 343 1205 l 343 1088 l 226 1088 m 494 1088 l 494 1205 l 611 1205 l 611 1088 l 494 1088 z "},"Ì":{"ha":837,"x_min":117,"x_max":720,"o":"m 117 0 l 117 100 l 351 100 l 351 903 l 117 903 l 117 1004 l 720 1004 l 720 903 l 486 903 l 486 100 l 720 100 l 720 0 l 117 0 m 451 1088 l 267 1289 l 418 1289 l 568 1088 l 451 1088 z "},"Ó":{"ha":837,"x_min":42,"x_max":795,"o":"m 418 -25 q 139 123 237 -25 q 42 502 42 272 q 140 881 42 732 q 418 1029 237 1029 q 697 881 600 1029 q 795 502 795 732 q 697 123 795 272 q 418 -25 600 -25 m 418 75 q 593 181 532 75 q 653 503 653 287 q 593 823 653 718 q 418 928 532 928 q 245 823 305 928 q 184 503 184 718 q 244 181 184 287 q 418 75 304 75 m 293 1088 l 444 1289 l 594 1289 l 410 1088 l 293 1088 z "},"Ô":{"ha":837,"x_min":42,"x_max":795,"o":"m 418 -25 q 139 123 237 -25 q 42 502 42 272 q 140 881 42 732 q 418 1029 237 1029 q 697 881 600 1029 q 795 502 795 732 q 697 123 795 272 q 418 -25 600 -25 m 418 75 q 593 181 532 75 q 653 503 653 287 q 593 823 653 718 q 418 928 532 928 q 245 823 305 928 q 184 503 184 718 q 244 181 184 287 q 418 75 304 75 m 494 1289 l 644 1088 l 527 1088 l 418 1213 l 310 1088 l 193 1088 l 343 1289 l 494 1289 z "},"Ò":{"ha":837,"x_min":42,"x_max":795,"o":"m 418 -25 q 139 123 237 -25 q 42 502 42 272 q 140 881 42 732 q 418 1029 237 1029 q 697 881 600 1029 q 795 502 795 732 q 697 123 795 272 q 418 -25 600 -25 m 418 75 q 593 181 532 75 q 653 503 653 287 q 593 823 653 718 q 418 928 532 928 q 245 823 305 928 q 184 503 184 718 q 244 181 184 287 q 418 75 304 75 m 451 1088 l 267 1289 l 418 1289 l 568 1088 l 451 1088 z "},"Ú":{"ha":837,"x_min":104,"x_max":733,"o":"m 104 1004 l 237 1004 l 237 338 q 261 171 237 218 q 326 99 286 123 q 422 75 366 75 q 561 125 505 75 q 616 341 616 175 l 616 1004 l 733 1004 l 733 361 q 722 197 733 252 q 626 41 703 108 q 424 -25 550 -25 q 188 61 273 -25 q 125 165 144 105 q 108 241 112 204 q 104 340 104 279 l 104 1004 m 293 1088 l 444 1289 l 594 1289 l 410 1088 l 293 1088 z "},"Û":{"ha":837,"x_min":104,"x_max":733,"o":"m 104 1004 l 237 1004 l 237 338 q 261 171 237 218 q 326 99 286 123 q 422 75 366 75 q 561 125 505 75 q 616 341 616 175 l 616 1004 l 733 1004 l 733 361 q 722 197 733 252 q 626 41 703 108 q 424 -25 550 -25 q 188 61 273 -25 q 125 165 144 105 q 108 241 112 204 q 104 340 104 279 l 104 1004 m 494 1289 l 644 1088 l 527 1088 l 418 1213 l 310 1088 l 193 1088 l 343 1289 l 494 1289 z "},"Ù":{"ha":837,"x_min":104,"x_max":733,"o":"m 104 1004 l 237 1004 l 237 338 q 261 171 237 218 q 326 99 286 123 q 422 75 366 75 q 561 125 505 75 q 616 341 616 175 l 616 1004 l 733 1004 l 733 361 q 722 197 733 252 q 626 41 703 108 q 424 -25 550 -25 q 188 61 273 -25 q 125 165 144 105 q 108 241 112 204 q 104 340 104 279 l 104 1004 m 435 1088 l 251 1289 l 401 1289 l 552 1088 l 435 1088 z "},"ı":{"ha":837,"x_min":117,"x_max":519,"o":"m 385 0 l 385 636 l 117 636 l 117 736 l 519 736 l 519 0 l 385 0 z "},"ˆ":{"ha":837,"x_min":193,"x_max":644,"o":"m 494 1071 l 644 870 l 527 870 l 418 996 l 310 870 l 193 870 l 343 1071 l 494 1071 z "},"˜":{"ha":837,"x_min":193,"x_max":644,"o":"m 644 1029 q 603 902 635 935 q 519 870 572 870 q 444 884 477 870 l 368 915 q 327 926 342 926 q 276 870 292 926 l 193 870 q 233 996 202 964 q 318 1029 264 1029 q 393 1015 360 1029 l 469 985 q 510 974 495 974 q 561 1029 545 974 l 644 1029 z "},"ˉ":{"ha":837,"x_min":226,"x_max":611,"o":"m 226 870 l 226 970 l 611 970 l 611 870 l 226 870 z "},"˘":{"ha":837,"x_min":193,"x_max":644,"o":"m 193 1071 l 276 1071 q 327 991 286 1016 q 418 966 368 966 q 511 991 471 966 q 561 1071 551 1017 l 644 1071 q 606 961 635 1002 q 531 895 577 920 q 418 870 484 870 q 307 895 353 870 q 231 961 260 919 q 193 1071 202 1002 z "},"˙":{"ha":837,"x_min":351,"x_max":485,"o":"m 351 870 l 351 1004 l 485 1004 l 485 870 l 351 870 z "},"˚":{"ha":837,"x_min":314,"x_max":523,"o":"m 418 870 q 345 899 376 870 q 314 975 314 928 q 345 1050 314 1021 q 418 1079 376 1079 q 492 1050 461 1079 q 523 975 523 1021 q 492 899 523 928 q 418 870 461 870 m 418 920 q 457 935 442 920 q 473 975 473 949 q 457 1015 473 1000 q 418 1029 442 1029 q 379 1015 395 1029 q 364 975 364 1000 q 379 935 364 949 q 418 920 395 920 z "},"¸":{"ha":837,"x_min":336,"x_max":559,"o":"m 336 -250 l 336 -193 q 406 -207 378 -207 q 450 -196 434 -207 q 465 -171 465 -185 q 354 -108 465 -124 l 409 0 l 486 0 l 450 -73 q 559 -178 559 -104 q 529 -241 559 -214 q 433 -268 498 -268 q 336 -250 386 -268 z "},"˝":{"ha":837,"x_min":204,"x_max":666,"o":"m 204 870 l 351 1071 l 456 1071 l 286 870 l 204 870 m 414 870 l 561 1071 l 666 1071 l 496 870 l 414 870 z "},"˛":{"ha":837,"x_min":286,"x_max":509,"o":"m 509 -252 q 419 -268 463 -268 q 319 -238 353 -268 q 286 -164 286 -209 q 385 0 286 -89 l 472 0 q 417 -58 432 -39 q 392 -100 401 -77 q 382 -141 382 -123 q 401 -187 382 -172 q 458 -202 420 -202 q 509 -193 481 -202 l 509 -252 z "},"ˇ":{"ha":837,"x_min":193,"x_max":644,"o":"m 343 870 l 193 1071 l 310 1071 l 418 945 l 527 1071 l 644 1071 l 494 870 l 343 870 z "},"Š":{"ha":837,"x_min":111,"x_max":758,"o":"m 111 23 l 111 155 q 414 75 288 75 q 521 97 471 75 q 597 160 571 118 q 623 250 623 202 q 504 408 623 346 l 309 510 q 160 627 202 566 q 118 768 118 687 q 191 950 118 872 q 423 1029 264 1029 q 685 988 538 1029 l 685 872 q 423 928 538 928 q 327 912 370 928 q 264 862 285 897 q 243 789 243 828 q 272 705 243 744 q 377 627 300 667 l 559 533 q 716 412 675 473 q 758 271 758 351 q 665 60 758 145 q 399 -25 573 -25 q 298 -19 354 -25 q 111 23 243 -12 m 376 1088 l 225 1289 l 342 1289 l 451 1163 l 559 1289 l 677 1289 l 526 1088 l 376 1088 z "},"š":{"ha":837,"x_min":127,"x_max":715,"o":"m 127 30 l 127 151 q 395 83 282 83 q 535 120 487 83 q 583 199 583 157 q 560 255 583 231 q 456 304 536 279 l 313 351 q 191 424 237 376 q 146 543 146 471 q 217 694 146 635 q 435 753 289 753 q 527 749 479 753 q 676 721 575 745 l 676 612 q 435 652 544 652 q 316 625 358 652 q 274 555 274 597 q 294 507 274 527 q 374 465 314 486 l 543 406 q 680 324 644 371 q 715 212 715 277 q 635 50 715 117 q 398 -17 555 -17 q 127 30 271 -17 m 366 870 l 216 1071 l 333 1071 l 441 945 l 550 1071 l 667 1071 l 517 870 l 366 870 z "},"¦":{"ha":837,"x_min":368,"x_max":469,"o":"m 368 -201 l 368 301 l 469 301 l 469 -201 l 368 -201 m 368 569 l 368 1071 l 469 1071 l 469 569 l 368 569 z "},"Ð":{"ha":837,"x_min":21,"x_max":785,"o":"m 88 0 l 88 477 l 21 477 l 21 577 l 88 577 l 88 1004 l 351 1004 q 685 876 585 1004 q 785 522 785 748 q 734 236 785 347 q 586 63 684 125 q 315 0 488 0 l 88 0 m 222 100 l 289 100 q 499 143 429 100 q 606 277 569 186 q 642 509 642 368 q 608 734 642 646 q 509 863 574 822 q 283 904 444 904 l 222 903 l 222 577 l 389 577 l 389 477 l 222 477 l 222 100 z "},"ð":{"ha":837,"x_min":76,"x_max":763,"o":"m 505 724 q 451 798 480 768 q 378 864 422 827 l 214 754 l 159 836 l 286 924 q 188 958 228 950 q 77 970 148 966 l 77 1071 l 92 1071 q 242 1053 161 1071 q 393 995 323 1036 l 508 1071 l 566 989 l 481 934 q 687 693 612 836 q 763 391 763 551 q 668 96 763 210 q 420 -17 574 -17 q 239 31 320 -17 q 117 169 158 79 q 76 365 76 260 q 118 557 76 469 q 239 691 159 645 q 413 738 319 738 q 505 724 456 738 m 422 83 q 569 155 509 83 q 628 370 628 227 q 572 577 628 514 q 426 640 516 640 q 271 564 324 640 q 218 364 218 488 q 245 211 218 278 q 319 113 271 143 q 422 83 367 83 z "},"Ý":{"ha":837,"x_min":22,"x_max":832,"o":"m 352 0 l 352 423 l 22 1004 l 176 1004 l 434 549 l 705 1004 l 832 1004 l 486 423 l 486 0 l 352 0 m 302 1088 l 452 1289 l 603 1289 l 419 1088 l 302 1088 z "},"ý":{"ha":837,"x_min":58,"x_max":800,"o":"m 96 -268 l 96 -168 l 151 -168 q 268 -138 231 -168 q 303 -98 290 -120 q 334 -38 316 -76 l 367 33 l 58 736 l 196 736 l 437 185 l 680 736 l 800 736 l 429 -94 q 322 -231 388 -186 q 251 -261 290 -254 q 153 -268 212 -268 l 96 -268 m 311 870 l 462 1071 l 612 1071 l 429 870 l 311 870 z "},"Þ":{"ha":837,"x_min":155,"x_max":785,"o":"m 155 0 l 155 1004 l 288 1004 l 288 820 l 437 820 q 588 808 526 820 q 733 725 682 790 q 785 552 785 659 q 679 306 785 394 q 386 218 573 218 l 288 218 l 288 0 l 155 0 m 288 318 l 372 318 q 589 389 535 318 q 642 551 642 459 q 579 686 642 642 q 519 712 551 705 q 421 720 487 720 l 288 720 l 288 318 z "},"þ":{"ha":837,"x_min":121,"x_max":766,"o":"m 121 -268 l 121 937 l 255 937 l 255 736 l 247 598 l 255 598 q 364 714 304 675 q 496 753 424 753 q 694 654 622 753 q 766 393 766 556 q 683 100 766 210 q 581 13 640 43 q 456 -17 522 -17 q 355 3 404 -17 q 255 83 305 23 l 247 83 l 255 -17 l 255 -268 l 121 -268 m 255 184 q 348 109 302 134 q 438 83 393 83 q 568 151 512 83 q 623 378 623 218 q 579 580 623 521 q 468 639 535 639 q 365 606 422 639 q 255 498 308 572 l 255 184 z "},"×":{"ha":837,"x_min":58,"x_max":778,"o":"m 130 0 l 58 71 l 347 359 l 58 648 l 130 720 l 418 431 l 707 720 l 778 648 l 489 359 l 778 71 l 707 0 l 418 289 l 130 0 z "},"¹":{"ha":837,"x_min":233,"x_max":475,"o":"m 358 502 l 358 920 l 233 920 l 233 1004 l 475 1029 l 475 502 l 358 502 z "},"²":{"ha":837,"x_min":205,"x_max":656,"o":"m 205 502 l 205 597 q 277 676 241 651 q 354 726 313 701 l 404 756 q 493 815 481 803 q 513 842 505 827 q 521 873 521 857 q 488 927 521 909 q 398 945 454 945 q 205 897 305 945 l 205 990 q 420 1029 310 1029 q 594 984 543 1029 q 645 878 645 939 q 630 817 645 846 q 594 769 615 789 q 479 700 573 749 l 427 672 q 377 645 401 659 q 328 594 353 631 l 656 594 l 656 502 l 205 502 z "},"³":{"ha":837,"x_min":212,"x_max":646,"o":"m 212 514 l 212 608 q 404 569 342 569 q 484 587 448 569 q 520 641 520 604 q 472 704 520 683 q 328 725 424 725 l 288 725 l 288 808 l 329 808 q 476 829 432 808 q 520 888 520 850 q 496 931 520 917 q 425 945 473 945 q 353 939 400 945 q 212 897 307 932 l 212 989 q 440 1029 322 1029 q 593 994 545 1029 q 642 904 642 958 q 613 831 642 865 q 509 770 585 797 q 612 718 578 751 q 646 637 646 684 q 592 530 646 575 q 416 486 537 486 q 212 514 332 486 z "},"½":{"ha":837,"x_min":-1,"x_max":820,"o":"m 92 502 l 92 920 l 0 920 l -1 1004 l 210 1029 l 210 502 l 92 502 m 5 -25 l 556 1029 l 669 1029 l 118 -25 l 5 -25 m 451 0 l 451 94 q 493 160 474 136 q 544 215 512 184 q 604 267 576 245 l 633 290 q 685 373 685 331 q 663 426 685 408 q 595 444 640 444 q 451 406 528 444 l 451 497 q 608 528 538 528 q 749 489 691 528 q 808 380 808 450 q 787 303 808 338 q 697 222 767 268 l 660 197 l 633 179 q 598 152 618 168 q 562 92 579 135 l 820 92 l 820 0 l 451 0 z "},"¼":{"ha":837,"x_min":0,"x_max":820,"o":"m 92 502 l 92 920 l 0 920 l 0 1004 l 209 1029 l 209 502 l 92 502 m 27 -25 l 578 1029 l 691 1029 l 140 -25 l 27 -25 m 619 0 l 619 134 l 368 134 l 368 234 l 606 519 l 736 519 l 736 218 l 820 218 l 820 134 l 736 134 l 736 0 l 619 0 m 456 218 l 619 218 l 619 405 l 456 218 z "},"¾":{"ha":837,"x_min":28,"x_max":859,"o":"m 34 597 q 170 571 116 571 q 240 588 210 571 q 271 639 271 606 q 88 728 271 728 l 88 810 l 109 810 q 237 834 203 810 q 272 891 272 858 q 248 933 272 917 q 182 950 224 950 q 34 922 118 950 l 34 1008 q 195 1029 117 1029 q 346 992 299 1029 q 393 905 393 955 q 361 828 393 864 q 237 768 329 792 q 329 741 301 757 q 376 698 356 726 q 395 636 395 670 q 343 532 395 576 q 163 488 291 488 q 34 508 100 488 l 34 597 m 28 -25 l 737 1029 l 859 1029 l 147 -25 l 28 -25 m 631 0 l 631 134 l 380 134 l 380 239 l 617 519 l 748 519 l 748 218 l 831 218 l 831 134 l 748 134 l 748 0 l 631 0 m 467 218 l 631 218 l 631 404 l 467 218 z "},"­":{"ha":837,"x_min":142,"x_max":694,"o":"m 142 368 l 142 469 l 694 469 l 694 368 l 142 368 z "},"¤":{"ha":837,"x_min":75,"x_max":762,"o":"m 261 287 l 136 160 l 75 221 l 202 347 q 157 503 157 420 q 202 660 157 586 l 75 786 l 136 846 l 261 720 q 342 759 302 746 q 418 772 381 772 q 496 759 456 772 q 576 720 535 746 l 702 846 l 762 786 l 635 660 q 680 503 680 586 q 635 347 680 420 l 762 221 l 702 160 l 576 287 q 496 247 535 260 q 418 234 456 234 q 342 247 381 234 q 261 287 302 260 m 418 334 q 531 384 483 334 q 580 503 580 434 q 531 623 580 573 q 418 672 483 672 q 306 623 354 672 q 258 503 258 573 q 306 384 258 434 q 418 334 354 334 z "}}}
